#define bunny_s_width 32
#define bunny_s_height 32
static unsigned char bunny_s_bits[] = {
   0x00, 0x00, 0x00, 0x00, 0x00, 0x0c, 0x00, 0x00, 0x00, 0x12, 0x00, 0x00,
   0x00, 0x13, 0x00, 0x00, 0x00, 0x11, 0xf8, 0x00, 0x80, 0x11, 0x84, 0x00,
   0x80, 0x10, 0x43, 0x00, 0x80, 0x90, 0x20, 0x00, 0x80, 0x50, 0x10, 0x00,
   0xc0, 0x38, 0x08, 0x00, 0x40, 0x0c, 0x04, 0x00, 0x40, 0x08, 0x02, 0x00,
   0x30, 0x00, 0x01, 0x00, 0x08, 0x80, 0x00, 0x00, 0x04, 0x00, 0x7f, 0x00,
   0x02, 0x00, 0x80, 0x01, 0x12, 0x00, 0x00, 0x32, 0x12, 0x00, 0x00, 0x4c,
   0x02, 0x00, 0x00, 0x40, 0x02, 0x00, 0x00, 0x40, 0x02, 0x00, 0x00, 0x40,
   0x04, 0x00, 0x00, 0x40, 0x08, 0x00, 0x00, 0x20, 0x10, 0x00, 0x00, 0x10,
   0xe0, 0x01, 0x00, 0x08, 0x20, 0x00, 0x00, 0x08, 0x20, 0x00, 0x00, 0x30,
   0x20, 0x00, 0x00, 0x40, 0x20, 0xe0, 0x00, 0x80, 0x20, 0x1c, 0xff, 0x81,
   0xc0, 0x03, 0x00, 0x46, 0x00, 0x00, 0x00, 0x38 };
