#define intro_width 383
#define intro_height 128
static unsigned char intro_bits[] = {
   0x00, 0x00, 0x00, 0x00, 0x00, 0x00, 0x00, 0x00, 0x00, 0x00, 0x00, 0x00,
   0x00, 0x00, 0x00, 0x00, 0x00, 0x00, 0x00, 0x00, 0x00, 0x00, 0x00, 0x00,
   0x00, 0x00, 0x00, 0x00, 0x00, 0x00, 0x00, 0x00, 0x00, 0x00, 0x00, 0x00,
   0x00, 0x00, 0x00, 0x00, 0x00, 0x00, 0x00, 0x00, 0x00, 0x00, 0x00, 0x00,
   0x00, 0x00, 0x00, 0x00, 0x00, 0x00, 0x00, 0x00, 0x00, 0x00, 0x00, 0x00,
   0x00, 0x00, 0x00, 0x00, 0x00, 0x00, 0x00, 0x00, 0x00, 0x00, 0x00, 0x00,
   0x00, 0x00, 0x00, 0x00, 0x00, 0x00, 0x00, 0x00, 0x00, 0x00, 0x00, 0x00,
   0x00, 0x00, 0x00, 0x00, 0x00, 0x00, 0x00, 0x00, 0x00, 0x00, 0x00, 0x00,
   0x00, 0x00, 0x00, 0x00, 0x00, 0x00, 0x00, 0x00, 0x00, 0x00, 0x00, 0x00,
   0x00, 0x00, 0x00, 0x00, 0x00, 0x00, 0x00, 0x00, 0x00, 0x00, 0x00, 0x00,
   0x00, 0x00, 0x00, 0x00, 0x00, 0x00, 0x00, 0x00, 0x00, 0x00, 0x00, 0x00,
   0x00, 0x00, 0x00, 0x00, 0x00, 0x00, 0x00, 0x00, 0x00, 0x00, 0x00, 0x00,
   0x00, 0x00, 0x00, 0x00, 0x00, 0x00, 0x00, 0x40, 0x20, 0x00, 0x00, 0x00,
   0x00, 0x00, 0x00, 0x00, 0x00, 0x00, 0x00, 0x00, 0x00, 0x02, 0x00, 0x00,
   0x00, 0x00, 0x00, 0x00, 0x00, 0x00, 0x00, 0x04, 0x00, 0x00, 0x00, 0x00,
   0x00, 0x00, 0x00, 0x00, 0x00, 0x00, 0x00, 0x00, 0x00, 0x00, 0x00, 0x00,
   0x00, 0x00, 0x00, 0x00, 0x00, 0x00, 0x00, 0x40, 0x20, 0x00, 0x00, 0x00,
   0x00, 0x00, 0x00, 0x40, 0x00, 0x00, 0x00, 0x00, 0x00, 0x01, 0x00, 0x00,
   0x00, 0x00, 0x00, 0x00, 0x00, 0x00, 0x00, 0x08, 0x00, 0x00, 0x00, 0x00,
   0x00, 0x00, 0x00, 0x00, 0x00, 0x00, 0x00, 0x00, 0x00, 0x00, 0x00, 0x00,
   0xf0, 0x01, 0x00, 0x00, 0x40, 0x00, 0x00, 0x40, 0x20, 0x00, 0x00, 0x00,
   0x02, 0x00, 0x80, 0x40, 0x00, 0x00, 0x81, 0x00, 0x00, 0xf1, 0x80, 0x07,
   0x10, 0xe0, 0xf0, 0x07, 0x0e, 0x38, 0x20, 0x08, 0x00, 0x00, 0x00, 0x00,
   0x00, 0x00, 0x00, 0x00, 0x00, 0x00, 0x00, 0x00, 0x00, 0x00, 0x00, 0x00,
   0x08, 0x02, 0x00, 0x00, 0x40, 0x00, 0x00, 0x40, 0x20, 0x00, 0x00, 0x00,
   0x02, 0x00, 0x80, 0x00, 0x00, 0x00, 0x81, 0x00, 0x80, 0x18, 0xc3, 0x0c,
   0x18, 0x18, 0x10, 0x80, 0x01, 0x06, 0x30, 0x10, 0x00, 0x00, 0x00, 0x00,
   0x00, 0x00, 0x00, 0x00, 0x00, 0x00, 0x00, 0x00, 0x00, 0x00, 0x00, 0x00,
   0x04, 0x00, 0x00, 0x00, 0x40, 0x00, 0x00, 0x40, 0x20, 0x00, 0x00, 0x00,
   0x02, 0x00, 0x80, 0x00, 0x00, 0x00, 0x81, 0x00, 0x80, 0x00, 0x42, 0x08,
   0x14, 0x0c, 0x10, 0xc0, 0x00, 0x03, 0x28, 0x10, 0x00, 0x00, 0x00, 0x00,
   0x00, 0x00, 0x00, 0x00, 0x00, 0x00, 0x00, 0x00, 0x00, 0x00, 0x00, 0x00,
   0x06, 0xf0, 0xe1, 0xc1, 0xc7, 0x87, 0x07, 0x7e, 0xe0, 0x87, 0x20, 0x00,
   0x22, 0x10, 0x9f, 0x4f, 0x7e, 0x00, 0x81, 0x08, 0x44, 0x00, 0x22, 0x10,
   0x16, 0x04, 0x10, 0x40, 0x00, 0x01, 0x24, 0x20, 0x00, 0x00, 0x00, 0x00,
   0x00, 0x00, 0x00, 0x00, 0x00, 0x00, 0x00, 0x00, 0x00, 0x00, 0x00, 0x00,
   0x02, 0x10, 0x30, 0x02, 0x4c, 0xc0, 0x08, 0x61, 0x60, 0x88, 0x20, 0x00,
   0x22, 0x90, 0x81, 0x40, 0x82, 0x00, 0x81, 0x08, 0x44, 0x00, 0x22, 0x10,
   0x12, 0x02, 0x10, 0x20, 0x80, 0x00, 0x20, 0x20, 0x00, 0x00, 0x00, 0x00,
   0x00, 0x00, 0x00, 0x00, 0x00, 0x00, 0x00, 0x00, 0x00, 0x00, 0x00, 0x00,
   0x02, 0x10, 0x18, 0x04, 0x48, 0x60, 0x90, 0x41, 0x20, 0x18, 0x11, 0x00,
   0x22, 0x90, 0x80, 0x40, 0x02, 0x01, 0xff, 0x08, 0x44, 0x00, 0x21, 0x10,
   0x11, 0x7e, 0xf0, 0xe0, 0x87, 0x1f, 0x20, 0x20, 0x00, 0x00, 0x00, 0x00,
   0x00, 0x00, 0x00, 0x00, 0x00, 0x00, 0x00, 0x00, 0x00, 0x00, 0x00, 0x00,
   0x02, 0x10, 0x08, 0x04, 0x48, 0x20, 0x90, 0x40, 0x20, 0x10, 0x11, 0x00,
   0x22, 0x90, 0x81, 0x40, 0x02, 0x01, 0x81, 0x08, 0x44, 0x80, 0x20, 0x10,
   0x11, 0x86, 0x00, 0x63, 0x88, 0x21, 0x20, 0x20, 0x00, 0x00, 0x00, 0x00,
   0x00, 0x00, 0x00, 0x00, 0x00, 0x00, 0x00, 0x00, 0x00, 0x00, 0x00, 0x00,
   0x02, 0x10, 0xf8, 0xc7, 0x4f, 0xe0, 0x9f, 0x40, 0x20, 0x10, 0x11, 0x00,
   0x22, 0x10, 0x86, 0x40, 0x02, 0x01, 0x81, 0x08, 0x44, 0x40, 0x20, 0x90,
   0x10, 0x02, 0x01, 0x24, 0x90, 0x40, 0x20, 0x20, 0x00, 0x00, 0x00, 0x00,
   0x00, 0x00, 0x00, 0x00, 0x00, 0x00, 0x00, 0x00, 0x00, 0x00, 0x00, 0x00,
   0x02, 0x10, 0x08, 0x60, 0x48, 0x20, 0x80, 0x40, 0x20, 0x10, 0x0a, 0x00,
   0x22, 0x10, 0x98, 0x40, 0x02, 0x01, 0x81, 0x08, 0x44, 0x10, 0x20, 0x90,
   0x7f, 0x02, 0x01, 0x24, 0x90, 0x40, 0x20, 0x20, 0x00, 0x00, 0x00, 0x00,
   0x00, 0x00, 0x00, 0x00, 0x00, 0x00, 0x00, 0x00, 0x00, 0x00, 0x00, 0x00,
   0x04, 0x10, 0x08, 0x20, 0x48, 0x20, 0x80, 0x41, 0x20, 0x18, 0x0a, 0x00,
   0x22, 0x10, 0x90, 0x40, 0x02, 0x01, 0x81, 0x08, 0x44, 0x10, 0x40, 0x08,
   0x10, 0x02, 0x01, 0x24, 0x90, 0x40, 0x20, 0x20, 0x00, 0x00, 0x00, 0x00,
   0x00, 0x00, 0x00, 0x00, 0x00, 0x00, 0x00, 0x00, 0x00, 0x00, 0x00, 0x00,
   0x08, 0x10, 0x10, 0x60, 0xc8, 0x40, 0x00, 0x43, 0x20, 0x0c, 0x0e, 0x10,
   0x41, 0x10, 0x98, 0x41, 0x02, 0x01, 0x81, 0x10, 0x84, 0x08, 0xc0, 0x0c,
   0x10, 0x84, 0x00, 0x42, 0x08, 0x21, 0x20, 0x10, 0x00, 0x00, 0x00, 0x00,
   0x00, 0x00, 0x00, 0x00, 0x00, 0x00, 0x00, 0x00, 0x00, 0x00, 0x00, 0x00,
   0xf0, 0x11, 0xe0, 0xc3, 0x8f, 0x87, 0x0f, 0x7e, 0xe0, 0x07, 0x04, 0xe0,
   0x81, 0x9f, 0x0f, 0x4f, 0x02, 0x01, 0x81, 0xe0, 0x87, 0xf8, 0x83, 0x07,
   0x10, 0x78, 0xf8, 0x81, 0x07, 0x1e, 0x20, 0x10, 0x00, 0x00, 0x00, 0x00,
   0x00, 0x00, 0x00, 0x00, 0x00, 0x00, 0x00, 0x00, 0x00, 0x00, 0x00, 0x00,
   0x00, 0x00, 0x00, 0x00, 0x00, 0x00, 0x00, 0x00, 0x00, 0x00, 0x04, 0x00,
   0x00, 0x00, 0x00, 0x00, 0x00, 0x00, 0x00, 0x00, 0x00, 0x01, 0x00, 0x00,
   0x00, 0x00, 0x00, 0x00, 0x00, 0x00, 0x00, 0x08, 0x00, 0x00, 0x00, 0x00,
   0x00, 0x00, 0x00, 0x00, 0x00, 0x00, 0x00, 0x00, 0x00, 0x00, 0x00, 0x00,
   0x00, 0x00, 0x00, 0x00, 0x00, 0x00, 0x00, 0x00, 0x00, 0x00, 0x02, 0x00,
   0x00, 0x00, 0x00, 0x00, 0x00, 0x00, 0x00, 0x00, 0x00, 0x01, 0x00, 0x00,
   0x00, 0x00, 0x00, 0x00, 0x00, 0x00, 0x00, 0x08, 0x00, 0x00, 0x00, 0x00,
   0x00, 0x00, 0x00, 0x00, 0x00, 0x00, 0x00, 0x00, 0x00, 0x00, 0x00, 0x00,
   0x00, 0x00, 0x00, 0x00, 0x00, 0x00, 0x00, 0x00, 0x00, 0x80, 0x03, 0x00,
   0x00, 0x00, 0x00, 0x00, 0x00, 0x00, 0x00, 0x00, 0x00, 0x02, 0x00, 0x00,
   0x00, 0x00, 0x00, 0x00, 0x00, 0x00, 0x00, 0x04, 0x00, 0x00, 0x00, 0x00,
   0x00, 0x00, 0x00, 0x00, 0x00, 0x00, 0x00, 0x00, 0x00, 0x00, 0x00, 0x00,
   0x00, 0x00, 0x00, 0x00, 0x00, 0x00, 0x00, 0x00, 0x00, 0x00, 0x00, 0x00,
   0x00, 0x00, 0x00, 0x00, 0x00, 0x00, 0x00, 0x00, 0x00, 0x00, 0x00, 0x00,
   0x00, 0x00, 0x00, 0x00, 0x00, 0x00, 0x00, 0x00, 0x00, 0x00, 0x00, 0x00,
   0x00, 0x00, 0x00, 0x00, 0x00, 0x00, 0x00, 0x00, 0x00, 0x00, 0x00, 0x00,
   0x00, 0x00, 0x00, 0x00, 0x00, 0x00, 0x00, 0x00, 0x00, 0x00, 0x00, 0x00,
   0x00, 0x00, 0x00, 0x00, 0x00, 0x00, 0x00, 0x00, 0x00, 0x00, 0x00, 0x00,
   0x00, 0x00, 0x00, 0x00, 0x00, 0x00, 0x00, 0x00, 0x00, 0x00, 0x00, 0x00,
   0x00, 0x00, 0x00, 0x00, 0x00, 0x00, 0x00, 0x00, 0x00, 0x00, 0x00, 0x00,
   0x00, 0x00, 0x00, 0x00, 0x00, 0x00, 0x00, 0x00, 0x00, 0x00, 0x00, 0x00,
   0x00, 0x00, 0x00, 0x00, 0x00, 0x00, 0x00, 0x00, 0x00, 0x00, 0x00, 0x00,
   0x00, 0x00, 0x00, 0x00, 0x00, 0x00, 0x00, 0x00, 0x00, 0x00, 0x00, 0x00,
   0x00, 0x00, 0x00, 0x00, 0x00, 0x00, 0x00, 0x00, 0x00, 0x00, 0x00, 0x00,
   0x00, 0x00, 0x00, 0x00, 0x00, 0x00, 0x00, 0x00, 0x00, 0x00, 0x00, 0x00,
   0x00, 0x00, 0x00, 0x00, 0x00, 0x00, 0x00, 0x00, 0x00, 0x00, 0x00, 0x00,
   0x00, 0x00, 0x00, 0x00, 0x00, 0x00, 0x00, 0x00, 0x00, 0x00, 0x00, 0x00,
   0x00, 0x00, 0x00, 0x00, 0x00, 0x00, 0x00, 0x00, 0x00, 0x00, 0x00, 0x00,
   0x00, 0x00, 0x00, 0x00, 0x00, 0x00, 0x00, 0x00, 0x00, 0x00, 0x00, 0x00,
   0x00, 0x00, 0x00, 0x00, 0x00, 0x00, 0x00, 0x00, 0x00, 0x00, 0x00, 0x00,
   0x00, 0x00, 0x00, 0x00, 0x00, 0x00, 0x00, 0x00, 0x00, 0x00, 0x00, 0x00,
   0x00, 0x00, 0x00, 0x00, 0x00, 0x00, 0x00, 0x00, 0x00, 0x00, 0x00, 0x00,
   0x00, 0x00, 0x00, 0x00, 0x00, 0x00, 0x00, 0x00, 0x00, 0x00, 0x00, 0x00,
   0x00, 0x00, 0x00, 0x00, 0x00, 0x00, 0x00, 0x00, 0x00, 0x00, 0x00, 0x00,
   0x00, 0x00, 0x00, 0x00, 0x00, 0x00, 0x00, 0x00, 0x00, 0x00, 0x00, 0x00,
   0x00, 0x00, 0x00, 0x00, 0x00, 0x00, 0x00, 0x00, 0x00, 0x00, 0x00, 0x00,
   0x00, 0x00, 0x00, 0x00, 0x00, 0x00, 0x00, 0x00, 0x00, 0x00, 0x00, 0x00,
   0x00, 0x00, 0x00, 0x00, 0x00, 0x00, 0x00, 0x00, 0x00, 0x00, 0x00, 0x00,
   0x00, 0x00, 0x00, 0x00, 0x00, 0x00, 0x00, 0x00, 0x00, 0x00, 0x00, 0x00,
   0x00, 0x00, 0x00, 0x00, 0x00, 0x00, 0x00, 0x00, 0x00, 0x00, 0x00, 0x00,
   0x00, 0x00, 0x00, 0x00, 0x00, 0x00, 0x00, 0x00, 0x00, 0x00, 0x00, 0x00,
   0x00, 0x00, 0x00, 0x00, 0x00, 0x00, 0x00, 0x00, 0x00, 0x00, 0x00, 0x00,
   0x00, 0x00, 0x00, 0x00, 0x00, 0x00, 0x00, 0x00, 0x00, 0x00, 0x00, 0x00,
   0x00, 0x00, 0x00, 0x00, 0x00, 0x00, 0x00, 0x00, 0x00, 0x00, 0x00, 0x00,
   0x00, 0x00, 0x00, 0x00, 0x00, 0x00, 0x00, 0x00, 0x00, 0x00, 0x00, 0x00,
   0x00, 0x00, 0x00, 0x00, 0x00, 0x00, 0x00, 0x00, 0x00, 0x00, 0x00, 0x00,
   0x00, 0x00, 0x00, 0x00, 0x00, 0x00, 0x00, 0x00, 0x00, 0x00, 0x00, 0x00,
   0x00, 0x00, 0x00, 0x00, 0x00, 0x00, 0x00, 0x00, 0x00, 0x00, 0x00, 0x00,
   0x00, 0x00, 0x00, 0x00, 0x00, 0x00, 0x00, 0x00, 0x00, 0x00, 0x00, 0x00,
   0x00, 0x00, 0x00, 0x00, 0x00, 0x00, 0x00, 0x00, 0x00, 0x00, 0x00, 0x00,
   0x00, 0x00, 0x00, 0x00, 0x00, 0x00, 0x00, 0x00, 0x00, 0x00, 0x00, 0x00,
   0x00, 0x00, 0x00, 0x00, 0x00, 0x00, 0x00, 0x00, 0x00, 0x00, 0x00, 0x00,
   0x00, 0x00, 0x00, 0x00, 0x00, 0x00, 0x00, 0x00, 0x00, 0x00, 0x00, 0x00,
   0x00, 0x00, 0x00, 0x00, 0x00, 0x00, 0x00, 0x00, 0x00, 0x00, 0x00, 0x00,
   0x00, 0x00, 0x00, 0x00, 0x00, 0x00, 0x00, 0x00, 0x00, 0x00, 0x00, 0x00,
   0x00, 0x00, 0x00, 0x00, 0x00, 0x00, 0x00, 0x00, 0x00, 0x00, 0x00, 0x00,
   0x00, 0x00, 0x00, 0x00, 0x00, 0x00, 0x00, 0x00, 0x00, 0x00, 0x00, 0x00,
   0x00, 0x00, 0x00, 0x00, 0x00, 0x00, 0x00, 0x00, 0x00, 0x00, 0x00, 0x00,
   0x00, 0x00, 0x00, 0x00, 0x00, 0x00, 0x00, 0x00, 0x00, 0x00, 0x00, 0x00,
   0x00, 0x00, 0x00, 0x00, 0x00, 0x00, 0x00, 0x00, 0x00, 0x00, 0x00, 0x00,
   0x00, 0x00, 0x00, 0x00, 0x00, 0x00, 0x00, 0x00, 0x00, 0x00, 0x00, 0x00,
   0x00, 0x00, 0x00, 0x00, 0x00, 0x00, 0x00, 0x00, 0x00, 0x00, 0x00, 0x00,
   0x00, 0x00, 0x00, 0x00, 0x00, 0x00, 0x00, 0x00, 0x00, 0x00, 0x00, 0x00,
   0x00, 0x00, 0x00, 0x00, 0x00, 0x00, 0x00, 0x00, 0x00, 0x00, 0x00, 0x00,
   0x00, 0x00, 0x00, 0x00, 0x00, 0x00, 0x00, 0x00, 0x00, 0x00, 0x00, 0x00,
   0x00, 0x00, 0x00, 0x00, 0x00, 0x00, 0x00, 0x00, 0x00, 0x00, 0x00, 0x00,
   0x00, 0x00, 0x00, 0x00, 0x00, 0x00, 0x00, 0x00, 0x00, 0x00, 0x00, 0x00,
   0x00, 0x00, 0x00, 0x00, 0x00, 0x00, 0x00, 0x00, 0x00, 0x00, 0x00, 0x00,
   0x00, 0x00, 0x00, 0x00, 0x00, 0x00, 0x00, 0x00, 0x00, 0x00, 0x00, 0x00,
   0x00, 0x00, 0x00, 0x00, 0x00, 0x00, 0x00, 0x00, 0x00, 0x00, 0x00, 0x00,
   0x00, 0x00, 0x00, 0x00, 0x00, 0x00, 0x00, 0x00, 0x00, 0x00, 0x00, 0x00,
   0x00, 0x00, 0x00, 0x00, 0x00, 0x00, 0x00, 0x00, 0x00, 0x00, 0x00, 0x00,
   0x00, 0x00, 0x00, 0x00, 0x00, 0x00, 0x00, 0x00, 0x00, 0x00, 0x00, 0x00,
   0x00, 0x00, 0x00, 0x00, 0x00, 0x00, 0x00, 0x00, 0x00, 0x00, 0x00, 0x00,
   0x00, 0x00, 0x00, 0x00, 0x00, 0x00, 0x00, 0x00, 0x00, 0x00, 0x00, 0x00,
   0x00, 0x00, 0x00, 0x00, 0x00, 0x00, 0x00, 0x00, 0x00, 0x00, 0x00, 0x00,
   0x00, 0x00, 0x00, 0x00, 0x00, 0x00, 0x00, 0x00, 0x00, 0x00, 0x00, 0x00,
   0x00, 0x00, 0x00, 0x00, 0x00, 0x00, 0x00, 0x00, 0x00, 0x00, 0x00, 0x00,
   0x00, 0x00, 0x00, 0x00, 0x00, 0x00, 0x00, 0x00, 0x00, 0x00, 0x00, 0x00,
   0x00, 0x00, 0x00, 0x00, 0x00, 0x00, 0x00, 0x00, 0x00, 0x00, 0x00, 0x00,
   0x00, 0x00, 0x00, 0x00, 0x00, 0x00, 0x00, 0x00, 0x00, 0x00, 0x00, 0x00,
   0x00, 0x00, 0x00, 0x00, 0x00, 0x00, 0x00, 0x00, 0x00, 0x00, 0x00, 0x00,
   0x00, 0x00, 0x00, 0x00, 0x00, 0x00, 0x00, 0x00, 0x00, 0x00, 0x00, 0x00,
   0x00, 0x00, 0x00, 0x00, 0x00, 0x00, 0x00, 0x00, 0x00, 0x00, 0x00, 0x00,
   0x00, 0x00, 0x00, 0x00, 0x00, 0x00, 0x00, 0x00, 0x00, 0x00, 0x00, 0x00,
   0x00, 0x00, 0x00, 0x00, 0x00, 0x00, 0x00, 0x00, 0x00, 0x00, 0x00, 0x00,
   0x00, 0x00, 0x00, 0x00, 0x00, 0x00, 0x00, 0x00, 0x00, 0x00, 0x00, 0x00,
   0x00, 0x00, 0x00, 0x00, 0x00, 0x00, 0x00, 0x00, 0x00, 0x00, 0x00, 0x00,
   0x00, 0x00, 0x00, 0x00, 0x00, 0x00, 0x00, 0x00, 0x00, 0x00, 0x00, 0x00,
   0x00, 0x00, 0x00, 0x00, 0x00, 0x00, 0x00, 0x00, 0x00, 0x00, 0x00, 0x00,
   0x00, 0x00, 0x00, 0x00, 0x00, 0x00, 0x00, 0x00, 0x00, 0x00, 0x00, 0x00,
   0x00, 0x00, 0x00, 0x00, 0x00, 0x00, 0x00, 0x00, 0x00, 0x00, 0x00, 0x00,
   0x00, 0x00, 0x00, 0x00, 0x00, 0x00, 0x00, 0x00, 0x00, 0x00, 0x00, 0x00,
   0x00, 0x00, 0x00, 0x00, 0x00, 0x00, 0x00, 0x00, 0x00, 0x00, 0x00, 0x00,
   0x00, 0x00, 0x00, 0x00, 0x00, 0x00, 0x00, 0x00, 0x00, 0x00, 0x00, 0x00,
   0x00, 0x00, 0x00, 0x00, 0x00, 0x00, 0x00, 0x00, 0x00, 0x00, 0x00, 0x00,
   0x00, 0x00, 0x00, 0x00, 0x00, 0x00, 0x00, 0x00, 0x00, 0x00, 0x00, 0x00,
   0x00, 0x00, 0x00, 0x00, 0x00, 0x00, 0x00, 0x00, 0x00, 0x00, 0x00, 0x00,
   0x00, 0x00, 0x00, 0x00, 0x00, 0x00, 0x00, 0x00, 0x00, 0x00, 0x00, 0x00,
   0x00, 0x00, 0x00, 0x00, 0x00, 0x00, 0x00, 0x00, 0x00, 0x00, 0x00, 0x00,
   0x00, 0x00, 0x00, 0x00, 0x00, 0x00, 0x00, 0x00, 0x00, 0x00, 0x00, 0x00,
   0x00, 0x00, 0x00, 0x00, 0x00, 0x00, 0x00, 0x00, 0x00, 0x00, 0x00, 0x00,
   0x00, 0x00, 0x00, 0x00, 0x00, 0x00, 0x00, 0x00, 0x00, 0x00, 0x00, 0x00,
   0x00, 0x00, 0x00, 0x00, 0x00, 0x00, 0x00, 0x00, 0x00, 0x00, 0x00, 0x00,
   0x00, 0x00, 0x00, 0x00, 0x00, 0x00, 0x00, 0x00, 0x00, 0x00, 0x00, 0x00,
   0x00, 0x00, 0x00, 0x00, 0x00, 0x00, 0x00, 0x00, 0x00, 0x00, 0x00, 0x00,
   0x00, 0x00, 0x00, 0x00, 0x00, 0x00, 0x00, 0x00, 0x00, 0x00, 0x00, 0x00,
   0x00, 0x00, 0x00, 0x00, 0x00, 0x00, 0x00, 0x00, 0x00, 0x00, 0x00, 0x00,
   0x00, 0x00, 0x00, 0x00, 0x00, 0x00, 0x00, 0x00, 0x00, 0x00, 0x00, 0x00,
   0x00, 0x00, 0x00, 0x00, 0x00, 0x00, 0x00, 0x00, 0x00, 0x00, 0x00, 0x00,
   0x00, 0x00, 0x00, 0x00, 0x00, 0x00, 0x00, 0x00, 0x00, 0x00, 0x00, 0x00,
   0x00, 0x00, 0x00, 0x00, 0x00, 0x00, 0x00, 0x00, 0x00, 0x00, 0x00, 0x00,
   0x00, 0x00, 0x00, 0x00, 0x00, 0x00, 0x00, 0x00, 0x00, 0x02, 0x00, 0x00,
   0x00, 0x00, 0x00, 0x00, 0x00, 0x00, 0x00, 0x00, 0x00, 0x00, 0x00, 0x00,
   0x00, 0x00, 0x00, 0x00, 0x00, 0x00, 0x00, 0x00, 0x00, 0x00, 0x00, 0x00,
   0x00, 0x00, 0x00, 0x00, 0x00, 0x00, 0x00, 0x00, 0x00, 0x00, 0x00, 0x00,
   0x00, 0x00, 0x00, 0x00, 0x00, 0x00, 0x00, 0x00, 0x00, 0x02, 0x00, 0x00,
   0x00, 0x00, 0x00, 0x00, 0x00, 0x00, 0x00, 0x00, 0x00, 0x00, 0x00, 0x00,
   0x00, 0x00, 0x00, 0x00, 0x00, 0x00, 0x00, 0x00, 0x00, 0x00, 0x00, 0x00,
   0x00, 0x00, 0x00, 0x00, 0x00, 0x00, 0x00, 0x00, 0x00, 0x00, 0x00, 0x00,
   0x04, 0x02, 0x00, 0x00, 0x00, 0x04, 0x00, 0x00, 0x00, 0x02, 0x00, 0x00,
   0x00, 0x00, 0x00, 0x00, 0x00, 0x00, 0x00, 0x00, 0x00, 0x00, 0x00, 0x00,
   0x00, 0x00, 0x00, 0x00, 0x00, 0x00, 0x00, 0x00, 0x00, 0x00, 0x00, 0x00,
   0x00, 0x00, 0x00, 0x00, 0x00, 0x00, 0x00, 0x00, 0x00, 0x00, 0x00, 0x00,
   0x04, 0x02, 0x00, 0x00, 0x00, 0x04, 0x00, 0x00, 0x00, 0x02, 0x00, 0x00,
   0x00, 0x00, 0x00, 0x00, 0x00, 0x00, 0x00, 0x00, 0x00, 0x00, 0x00, 0x00,
   0x00, 0x00, 0x00, 0x00, 0x00, 0x00, 0x00, 0x00, 0x00, 0x00, 0x00, 0x00,
   0x00, 0x00, 0x00, 0x00, 0x00, 0x00, 0x00, 0x00, 0x00, 0x00, 0x00, 0x00,
   0x04, 0x02, 0x00, 0x00, 0x00, 0x04, 0x00, 0x00, 0x00, 0x02, 0x00, 0x00,
   0x01, 0x00, 0x00, 0x00, 0x00, 0x00, 0x00, 0x00, 0x00, 0x00, 0x00, 0x00,
   0x00, 0x00, 0x00, 0x00, 0x00, 0x00, 0x00, 0x00, 0x00, 0x00, 0x00, 0x00,
   0x00, 0x00, 0x00, 0x00, 0x00, 0x00, 0x00, 0x00, 0x00, 0x00, 0x00, 0x00,
   0x04, 0x82, 0x87, 0x20, 0x08, 0x7c, 0x78, 0x80, 0x1f, 0x82, 0x8f, 0x20,
   0x01, 0x00, 0x00, 0x00, 0x00, 0x00, 0x00, 0x00, 0x00, 0x00, 0x00, 0x00,
   0x00, 0x00, 0x00, 0x00, 0x00, 0x00, 0x00, 0x00, 0x00, 0x00, 0x00, 0x00,
   0x00, 0x00, 0x00, 0x00, 0x00, 0x00, 0x00, 0x00, 0x00, 0x00, 0x00, 0x00,
   0x04, 0x42, 0x88, 0x20, 0x08, 0x04, 0x84, 0x80, 0x30, 0x02, 0x98, 0x20,
   0x00, 0x00, 0x00, 0x00, 0x00, 0x00, 0x00, 0x00, 0x00, 0x00, 0x00, 0x00,
   0x00, 0x00, 0x00, 0x00, 0x00, 0x00, 0x00, 0x00, 0x00, 0x00, 0x00, 0x00,
   0x00, 0x00, 0x00, 0x00, 0x00, 0x00, 0x00, 0x00, 0x00, 0x00, 0x00, 0x00,
   0xfc, 0x63, 0x18, 0x61, 0x04, 0x04, 0x86, 0x81, 0x60, 0x02, 0x10, 0x11,
   0x00, 0x00, 0x00, 0x00, 0x00, 0x00, 0x00, 0x00, 0x00, 0x00, 0x00, 0x00,
   0x00, 0x00, 0x00, 0x00, 0x00, 0x00, 0x00, 0x00, 0x00, 0x00, 0x00, 0x00,
   0x00, 0x00, 0x00, 0x00, 0x00, 0x00, 0x00, 0x00, 0x00, 0x00, 0x00, 0x00,
   0x04, 0x22, 0x10, 0x51, 0x04, 0x04, 0x02, 0x81, 0x40, 0x02, 0x10, 0x11,
   0x00, 0x00, 0x00, 0x00, 0x00, 0x00, 0x00, 0x00, 0x00, 0x00, 0x00, 0x00,
   0x00, 0x00, 0x00, 0x00, 0x00, 0x00, 0x00, 0x00, 0x00, 0x00, 0x00, 0x00,
   0x00, 0x00, 0x00, 0x00, 0x00, 0x00, 0x00, 0x00, 0x00, 0x00, 0x00, 0x00,
   0x04, 0x22, 0x10, 0x51, 0x04, 0x04, 0x02, 0x81, 0x40, 0x82, 0x1f, 0x11,
   0x00, 0x00, 0x00, 0x00, 0x00, 0x00, 0x00, 0x00, 0x00, 0x00, 0x00, 0x00,
   0x00, 0x00, 0x00, 0x00, 0x00, 0x00, 0x00, 0x00, 0x00, 0x00, 0x00, 0x00,
   0x00, 0x00, 0x00, 0x00, 0x00, 0x00, 0x00, 0x00, 0x00, 0x00, 0x00, 0x00,
   0x04, 0x22, 0x10, 0x8a, 0x02, 0x04, 0x02, 0x81, 0x40, 0xc2, 0x10, 0x0a,
   0x00, 0x00, 0x00, 0x00, 0x00, 0x00, 0x00, 0x00, 0x00, 0x00, 0x00, 0x00,
   0x00, 0x00, 0x00, 0x00, 0x00, 0x00, 0x00, 0x00, 0x00, 0x00, 0x00, 0x00,
   0x00, 0x00, 0x00, 0x00, 0x00, 0x00, 0x00, 0x00, 0x00, 0x00, 0x00, 0x00,
   0x04, 0x22, 0x18, 0x8a, 0x02, 0x04, 0x82, 0x81, 0x40, 0x42, 0x10, 0x0a,
   0x00, 0x00, 0x00, 0x00, 0x00, 0x00, 0x00, 0x00, 0x00, 0x00, 0x00, 0x00,
   0x00, 0x00, 0x00, 0x00, 0x00, 0x00, 0x00, 0x00, 0x00, 0x00, 0x00, 0x00,
   0x00, 0x00, 0x00, 0x00, 0x00, 0x00, 0x00, 0x00, 0x00, 0x00, 0x00, 0x00,
   0x04, 0x42, 0x08, 0x86, 0x03, 0x0c, 0x84, 0x80, 0x21, 0xc2, 0x10, 0x0e,
   0x01, 0x00, 0x00, 0x00, 0x00, 0x00, 0x00, 0x00, 0x00, 0x00, 0x00, 0x00,
   0x00, 0x00, 0x00, 0x00, 0x00, 0x00, 0x00, 0x00, 0x00, 0x00, 0x00, 0x00,
   0x00, 0x00, 0x00, 0x00, 0x00, 0x00, 0x00, 0x00, 0x00, 0x00, 0x00, 0x00,
   0x04, 0x82, 0x07, 0x04, 0x01, 0x78, 0x78, 0x80, 0x1f, 0x8c, 0x1f, 0x04,
   0x01, 0x00, 0x00, 0x00, 0x00, 0x00, 0x00, 0x00, 0x00, 0x00, 0x00, 0x00,
   0x00, 0x00, 0x00, 0x00, 0x00, 0x00, 0x00, 0x00, 0x00, 0x00, 0x00, 0x00,
   0x00, 0x00, 0x00, 0x00, 0x00, 0x00, 0x00, 0x00, 0x00, 0x00, 0x00, 0x00,
   0x00, 0x00, 0x00, 0x00, 0x00, 0x00, 0x00, 0x80, 0x00, 0x00, 0x00, 0x04,
   0x00, 0x00, 0x00, 0x00, 0x00, 0x00, 0x00, 0x00, 0x00, 0x00, 0x00, 0x00,
   0x00, 0x00, 0x00, 0x00, 0x00, 0x00, 0x00, 0x00, 0x00, 0x00, 0x00, 0x00,
   0x00, 0x00, 0x00, 0x00, 0x00, 0x00, 0x00, 0x00, 0x00, 0x00, 0x00, 0x00,
   0x00, 0x00, 0x00, 0x00, 0x00, 0x00, 0x00, 0x80, 0x00, 0x00, 0x00, 0x02,
   0x00, 0x00, 0x00, 0x00, 0x00, 0x00, 0x00, 0x00, 0x00, 0x00, 0x00, 0x00,
   0x00, 0x00, 0x00, 0x00, 0x00, 0x00, 0x00, 0x00, 0x00, 0x00, 0x00, 0x00,
   0x00, 0x00, 0x00, 0x00, 0x00, 0x00, 0x00, 0x00, 0x00, 0x00, 0x00, 0x00,
   0x00, 0x00, 0x00, 0x00, 0x00, 0x00, 0x00, 0x80, 0x00, 0x00, 0x80, 0x03,
   0x00, 0x00, 0x00, 0x00, 0x00, 0x00, 0x00, 0x00, 0x00, 0x00, 0x00, 0x00,
   0x00, 0x00, 0x00, 0x00, 0x00, 0x00, 0x00, 0x00, 0x00, 0x00, 0x00, 0x00,
   0x00, 0x00, 0x00, 0x00, 0x00, 0x00, 0x00, 0x00, 0x00, 0x00, 0x00, 0x00,
   0x00, 0x00, 0x00, 0x00, 0x00, 0x00, 0x00, 0x00, 0x00, 0x00, 0x00, 0x00,
   0x00, 0x00, 0x00, 0x00, 0x00, 0x00, 0x00, 0x00, 0x00, 0x00, 0x00, 0x00,
   0x00, 0x00, 0x00, 0x00, 0x00, 0x00, 0x00, 0x00, 0x00, 0x00, 0x00, 0x00,
   0x00, 0x00, 0x00, 0x00, 0x00, 0x00, 0x00, 0x00, 0x00, 0x00, 0x00, 0x00,
   0x00, 0x00, 0x00, 0x00, 0x00, 0x00, 0x00, 0x00, 0x00, 0x00, 0x00, 0x00,
   0x00, 0x00, 0x00, 0x00, 0x00, 0x00, 0x00, 0x00, 0x00, 0x00, 0x00, 0x00,
   0x00, 0x00, 0x00, 0x00, 0x00, 0x00, 0x00, 0x00, 0x00, 0x00, 0x00, 0x00,
   0x00, 0x00, 0x00, 0x00, 0x00, 0x00, 0x00, 0x00, 0x00, 0x00, 0x00, 0x00,
   0x00, 0x00, 0x00, 0x00, 0x00, 0x00, 0x00, 0x00, 0x00, 0x00, 0x00, 0x00,
   0x00, 0x00, 0x00, 0x00, 0x00, 0x00, 0x00, 0x00, 0x00, 0x00, 0x00, 0x00,
   0x00, 0x00, 0x00, 0x00, 0x00, 0x00, 0x00, 0x00, 0x00, 0x00, 0x00, 0x00,
   0x00, 0x00, 0x00, 0x00, 0x00, 0x00, 0x00, 0x00, 0x00, 0x00, 0x00, 0x00,
   0x00, 0x00, 0x00, 0x00, 0x00, 0x00, 0x00, 0x00, 0x00, 0x00, 0x00, 0x00,
   0x00, 0x00, 0x00, 0x00, 0x00, 0x00, 0x00, 0x00, 0x00, 0x00, 0x00, 0x00,
   0x00, 0x00, 0x00, 0x00, 0x00, 0x00, 0x00, 0x00, 0x00, 0x00, 0x00, 0x00,
   0x00, 0x00, 0x00, 0x00, 0x00, 0x00, 0x00, 0x00, 0x00, 0x00, 0x00, 0x00,
   0x00, 0x00, 0x00, 0x00, 0x00, 0x00, 0x00, 0x00, 0x00, 0x00, 0x00, 0x00,
   0x00, 0x00, 0x00, 0x00, 0x00, 0x00, 0x00, 0x00, 0x00, 0x20, 0x00, 0x00,
   0x00, 0x00, 0x00, 0x00, 0x00, 0x00, 0x00, 0x00, 0x00, 0x00, 0x3c, 0x00,
   0x00, 0x00, 0x00, 0x00, 0x00, 0x00, 0x00, 0x00, 0x40, 0x00, 0x00, 0x00,
   0x00, 0x00, 0x00, 0x00, 0x00, 0x00, 0x00, 0x00, 0x00, 0x00, 0x00, 0x00,
   0x00, 0x00, 0x00, 0x00, 0x00, 0x00, 0x00, 0x00, 0x01, 0x20, 0x00, 0x00,
   0x00, 0x00, 0x00, 0x00, 0x00, 0x00, 0x00, 0x00, 0x00, 0x00, 0x02, 0x00,
   0x00, 0x00, 0x00, 0x00, 0x00, 0x00, 0x00, 0x00, 0x40, 0x00, 0x00, 0x00,
   0x00, 0x00, 0x00, 0x00, 0xfc, 0x00, 0x00, 0x20, 0x00, 0x00, 0x40, 0x00,
   0x00, 0x00, 0x00, 0x00, 0x00, 0x00, 0x00, 0x00, 0x01, 0x20, 0x80, 0x00,
   0x00, 0x00, 0x00, 0x00, 0x00, 0x00, 0x00, 0x02, 0x00, 0x00, 0x01, 0x00,
   0x00, 0x00, 0x00, 0x00, 0x00, 0x00, 0x00, 0x00, 0x40, 0x00, 0x01, 0x00,
   0x00, 0x00, 0x00, 0x00, 0x04, 0x01, 0x00, 0x20, 0x00, 0x00, 0x40, 0x00,
   0x00, 0x00, 0x00, 0x00, 0x00, 0x00, 0x00, 0x00, 0x00, 0x20, 0x80, 0x00,
   0x00, 0x00, 0x00, 0x00, 0x00, 0x00, 0x00, 0x02, 0x00, 0x00, 0x01, 0x00,
   0x00, 0x00, 0x00, 0x00, 0x00, 0x00, 0x00, 0x00, 0x40, 0x00, 0x01, 0x00,
   0x00, 0x00, 0x00, 0x00, 0x04, 0x02, 0x00, 0x20, 0x00, 0x00, 0x40, 0x00,
   0x00, 0x00, 0x00, 0x00, 0x00, 0x00, 0x00, 0x00, 0x00, 0x20, 0x80, 0x00,
   0x00, 0x00, 0x00, 0x00, 0x00, 0x00, 0x00, 0x02, 0x00, 0x00, 0x01, 0x00,
   0x00, 0x00, 0x00, 0x00, 0x00, 0x00, 0x00, 0x00, 0x40, 0x00, 0x01, 0x00,
   0x00, 0x00, 0x00, 0x00, 0x04, 0xf2, 0xe1, 0xe1, 0xc3, 0x03, 0xcf, 0x07,
   0x20, 0x08, 0x0f, 0x81, 0x7c, 0x00, 0x7e, 0x1f, 0xe1, 0xe7, 0x87, 0x4f,
   0x10, 0x00, 0x3c, 0x3e, 0x3e, 0x1f, 0x1e, 0x3e, 0x3e, 0x00, 0xbf, 0x0f,
   0x0f, 0xbf, 0x0f, 0x80, 0x1f, 0x7c, 0x04, 0xc2, 0xcf, 0x0f, 0x9f, 0x20,
   0x00, 0x00, 0x00, 0x00, 0x04, 0x12, 0x10, 0x22, 0x60, 0x84, 0x40, 0x00,
   0x20, 0x88, 0x10, 0x81, 0x04, 0x00, 0xc2, 0x30, 0x31, 0x24, 0x88, 0x40,
   0x10, 0x00, 0x02, 0x60, 0x02, 0x01, 0x21, 0x02, 0x03, 0x00, 0x81, 0x80,
   0x10, 0x61, 0x18, 0x80, 0x20, 0xc0, 0x04, 0x62, 0x48, 0x10, 0x81, 0x20,
   0x00, 0x00, 0x00, 0x00, 0x04, 0x11, 0x18, 0x26, 0x30, 0x48, 0x40, 0x00,
   0x40, 0xc4, 0x30, 0x81, 0x04, 0x00, 0x82, 0x20, 0x19, 0x24, 0x90, 0x80,
   0x08, 0x00, 0x01, 0x40, 0x02, 0x81, 0x61, 0x02, 0x01, 0x00, 0x81, 0xc0,
   0x30, 0x41, 0x10, 0x80, 0x40, 0x80, 0x04, 0x32, 0x48, 0x20, 0x01, 0x11,
   0x00, 0x00, 0x00, 0x00, 0xfc, 0x10, 0x08, 0x24, 0x10, 0x48, 0x40, 0x00,
   0x40, 0x44, 0x20, 0x81, 0x04, 0x00, 0x82, 0x20, 0x09, 0x24, 0x90, 0x80,
   0x08, 0x00, 0x01, 0x40, 0x02, 0x81, 0x40, 0x02, 0x03, 0x00, 0x81, 0x40,
   0x20, 0x41, 0x10, 0x80, 0x40, 0x80, 0x04, 0x12, 0x48, 0x20, 0x01, 0x11,
   0x00, 0x00, 0x00, 0x00, 0x04, 0x10, 0x08, 0x24, 0xf0, 0x4f, 0x40, 0x00,
   0x40, 0x44, 0x20, 0x81, 0x04, 0x00, 0x82, 0x20, 0x09, 0x24, 0x90, 0x80,
   0x08, 0x00, 0x01, 0x7e, 0x02, 0x81, 0x40, 0x02, 0x0c, 0x00, 0x81, 0x40,
   0x20, 0x41, 0x10, 0x80, 0x40, 0xfc, 0x04, 0x12, 0x48, 0x20, 0x01, 0x11,
   0x00, 0x00, 0x00, 0x00, 0x04, 0x10, 0x08, 0x24, 0x10, 0x40, 0x40, 0x00,
   0x80, 0x42, 0x20, 0x81, 0x04, 0x00, 0x82, 0x20, 0x09, 0x24, 0x90, 0x00,
   0x05, 0x00, 0x01, 0x43, 0x02, 0x81, 0x40, 0x02, 0x30, 0x00, 0x81, 0x40,
   0x20, 0x41, 0x10, 0x80, 0x40, 0x86, 0x04, 0x12, 0x48, 0x20, 0x01, 0x0a,
   0x00, 0x00, 0x00, 0x00, 0x04, 0x10, 0x08, 0x26, 0x10, 0x40, 0x40, 0x00,
   0x80, 0x42, 0x30, 0x81, 0x04, 0x00, 0x82, 0x20, 0x19, 0x24, 0x90, 0x00,
   0x05, 0x00, 0x01, 0x41, 0x02, 0x81, 0x60, 0x02, 0x20, 0x00, 0x81, 0x40,
   0x30, 0x41, 0x10, 0x80, 0x40, 0x82, 0x04, 0x32, 0x48, 0x20, 0x01, 0x0a,
   0x00, 0x00, 0x00, 0x00, 0x04, 0x10, 0x10, 0x62, 0x20, 0x80, 0xc0, 0x00,
   0x80, 0x83, 0x10, 0x82, 0x04, 0x00, 0x82, 0x20, 0x31, 0x26, 0x90, 0x01,
   0x07, 0x00, 0x02, 0x43, 0x02, 0x01, 0x21, 0x06, 0x30, 0x00, 0x81, 0x80,
   0x10, 0x41, 0x10, 0x80, 0x40, 0x86, 0x08, 0x62, 0x4c, 0x20, 0x03, 0x0e,
   0x00, 0x00, 0x00, 0x00, 0x04, 0x10, 0xe0, 0xc1, 0xc3, 0x07, 0x8f, 0x07,
   0x00, 0x01, 0x0f, 0xfc, 0x04, 0x00, 0x82, 0x20, 0xe1, 0x27, 0x10, 0x0f,
   0x02, 0x00, 0x3c, 0x7e, 0x02, 0x01, 0x1e, 0x3c, 0x1f, 0x00, 0x81, 0x00,
   0x0f, 0x41, 0x10, 0x80, 0x40, 0xfc, 0xf0, 0xc3, 0x4f, 0x20, 0x1e, 0x04,
   0x00, 0x00, 0x00, 0x00, 0x00, 0x00, 0x00, 0x00, 0x00, 0x00, 0x00, 0x00,
   0x00, 0x01, 0x00, 0x00, 0x00, 0x00, 0x00, 0x00, 0x00, 0x04, 0x00, 0x00,
   0x02, 0x00, 0x00, 0x00, 0x00, 0x00, 0x00, 0x00, 0x00, 0x00, 0x00, 0x00,
   0x00, 0x00, 0x00, 0x00, 0x00, 0x00, 0x00, 0x00, 0x08, 0x00, 0x00, 0x04,
   0x00, 0x00, 0x00, 0x00, 0x00, 0x00, 0x00, 0x00, 0x00, 0x00, 0x00, 0x00,
   0x80, 0x00, 0x00, 0x00, 0x00, 0x00, 0x00, 0x00, 0x00, 0x02, 0x00, 0x00,
   0x01, 0x00, 0x00, 0x00, 0x00, 0x00, 0x00, 0x00, 0x00, 0x00, 0x00, 0x00,
   0x00, 0x00, 0x00, 0x00, 0x00, 0x00, 0x00, 0x00, 0x04, 0x00, 0x00, 0x02,
   0x00, 0x00, 0x00, 0x00, 0x00, 0x00, 0x00, 0x00, 0x00, 0x00, 0x00, 0x00,
   0xe0, 0x00, 0x00, 0x00, 0x00, 0x00, 0x00, 0x00, 0xf0, 0x01, 0x00, 0xc0,
   0x01, 0x00, 0x00, 0x00, 0x00, 0x00, 0x00, 0x00, 0x00, 0x00, 0x00, 0x00,
   0x00, 0x00, 0x00, 0x00, 0x00, 0x00, 0x00, 0xe0, 0x03, 0x00, 0x80, 0x03,
   0x00, 0x00, 0x00, 0x00, 0x00, 0x00, 0x00, 0x00, 0x00, 0x00, 0x00, 0x00,
   0x00, 0x00, 0x00, 0x00, 0x00, 0x00, 0x00, 0x00, 0x00, 0x00, 0x00, 0x00,
   0x00, 0x00, 0x00, 0x00, 0x00, 0x00, 0x00, 0x00, 0x00, 0x00, 0x00, 0x00,
   0x00, 0x00, 0x00, 0x00, 0x00, 0x00, 0x00, 0x00, 0x00, 0x00, 0x00, 0x00,
   0x00, 0x00, 0x00, 0x00, 0x00, 0x00, 0x00, 0x00, 0x00, 0x00, 0x00, 0x00,
   0x00, 0x00, 0x00, 0x00, 0x00, 0x00, 0x00, 0x00, 0x00, 0x00, 0x00, 0x00,
   0x00, 0x00, 0x00, 0x00, 0x00, 0x00, 0x00, 0x00, 0x00, 0x00, 0x00, 0x00,
   0x00, 0x00, 0x00, 0x00, 0x00, 0x00, 0x00, 0x00, 0x00, 0x00, 0x00, 0x00,
   0x00, 0x00, 0x00, 0x00, 0x00, 0x00, 0x00, 0x00, 0x00, 0x00, 0x00, 0x00,
   0x00, 0x00, 0x00, 0x00, 0x00, 0x00, 0x00, 0x00, 0x00, 0x00, 0x00, 0x00,
   0x00, 0x00, 0x00, 0x00, 0x00, 0x00, 0x00, 0x00, 0x00, 0x00, 0x00, 0x00,
   0x00, 0x00, 0x00, 0x00, 0x00, 0x00, 0x00, 0x00, 0x00, 0x00, 0x00, 0x00,
   0x00, 0x00, 0x00, 0x00, 0x00, 0x00, 0x00, 0x00, 0x00, 0x00, 0x00, 0x00,
   0x00, 0x00, 0x00, 0x00, 0x00, 0x00, 0x00, 0x00, 0x00, 0x00, 0x00, 0x00,
   0x00, 0x00, 0x00, 0x00, 0x00, 0x00, 0x00, 0x00, 0x00, 0x00, 0x00, 0x00,
   0x00, 0x00, 0x00, 0x00, 0x00, 0x00, 0x00, 0x00, 0x00, 0x00, 0x00, 0x00,
   0x02, 0x00, 0x00, 0x00, 0x00, 0x00, 0x00, 0x00, 0x00, 0x00, 0x02, 0x00,
   0x02, 0x00, 0x00, 0x00, 0x00, 0x00, 0x00, 0x00, 0x20, 0x00, 0x00, 0x40,
   0x00, 0x00, 0x00, 0x00, 0x00, 0x00, 0x00, 0x80, 0x00, 0x00, 0x08, 0x00,
   0x00, 0x01, 0x00, 0x00, 0x00, 0x00, 0x00, 0x00, 0x00, 0x00, 0x00, 0x78,
   0x02, 0x00, 0x00, 0x00, 0x00, 0x02, 0x00, 0x00, 0x00, 0x00, 0x42, 0x00,
   0x02, 0x04, 0x00, 0x00, 0x00, 0x00, 0x00, 0x00, 0x20, 0x00, 0x00, 0x40,
   0x00, 0x00, 0x00, 0x00, 0x40, 0x00, 0x00, 0x80, 0x00, 0x01, 0x08, 0x00,
   0x00, 0x01, 0x00, 0x00, 0x00, 0x00, 0x00, 0x00, 0x00, 0x00, 0x00, 0x04,
   0x02, 0x00, 0x00, 0x00, 0x00, 0x02, 0x00, 0x00, 0x00, 0x3e, 0x42, 0x00,
   0x02, 0x04, 0x00, 0x00, 0x00, 0x00, 0x00, 0x40, 0x20, 0x00, 0x00, 0x40,
   0x00, 0x00, 0x00, 0x00, 0x40, 0x00, 0x00, 0x80, 0x00, 0x01, 0x08, 0x00,
   0x02, 0x01, 0x00, 0x00, 0x00, 0x00, 0x00, 0x00, 0x08, 0x00, 0x00, 0x02,
   0x02, 0x00, 0x00, 0x00, 0x00, 0x00, 0x00, 0x00, 0x00, 0x41, 0x02, 0x00,
   0x02, 0x00, 0x00, 0x00, 0x00, 0x00, 0x00, 0x40, 0x20, 0x00, 0x00, 0x40,
   0x00, 0x00, 0x00, 0x00, 0x00, 0x00, 0x00, 0x80, 0x00, 0x00, 0x08, 0x00,
   0x02, 0x01, 0x00, 0x00, 0x00, 0x00, 0x00, 0x00, 0x08, 0x00, 0x00, 0x02,
   0x02, 0x00, 0x00, 0x00, 0x00, 0x00, 0x00, 0x00, 0x80, 0x00, 0x02, 0x00,
   0x02, 0x00, 0x00, 0x00, 0x00, 0x00, 0x00, 0x40, 0x20, 0x00, 0x00, 0x40,
   0x00, 0x00, 0x00, 0x00, 0x00, 0x00, 0x00, 0x80, 0x00, 0x00, 0x08, 0x00,
   0x02, 0x01, 0x00, 0x00, 0x00, 0x00, 0x00, 0x00, 0x08, 0x00, 0x00, 0x02,
   0x7e, 0x08, 0xe4, 0x87, 0x1f, 0xc2, 0x83, 0x0f, 0xc0, 0x00, 0x42, 0x78,
   0x82, 0xe4, 0x07, 0x7e, 0x80, 0x87, 0x1f, 0xc0, 0xe7, 0x07, 0x1e, 0xc0,
   0x0f, 0x81, 0xfc, 0xf0, 0x43, 0x78, 0xf0, 0x81, 0x20, 0xe1, 0x09, 0x02,
   0x3e, 0x3f, 0xf0, 0xf0, 0xfb, 0x00, 0x1e, 0x02, 0xf9, 0x00, 0x1e, 0x7e,
   0x86, 0x08, 0x24, 0x88, 0x20, 0x62, 0xc4, 0x00, 0x40, 0x00, 0x42, 0x04,
   0x42, 0x24, 0x08, 0x43, 0x40, 0x88, 0x20, 0x40, 0x20, 0x08, 0x23, 0xc0,
   0x10, 0x81, 0x04, 0x11, 0x44, 0x8c, 0x18, 0x80, 0x10, 0x11, 0x08, 0x01,
   0x02, 0x41, 0x18, 0x11, 0x86, 0x01, 0x21, 0x02, 0x09, 0x00, 0x21, 0x02,
   0x82, 0x09, 0x24, 0x90, 0x40, 0x32, 0x48, 0x00, 0x40, 0x00, 0x42, 0x02,
   0x32, 0x24, 0x90, 0x41, 0x60, 0x98, 0x40, 0x40, 0x20, 0x90, 0x41, 0x40,
   0x30, 0x81, 0x04, 0x12, 0x48, 0x06, 0x09, 0x80, 0x0c, 0x09, 0xc8, 0x00,
   0x02, 0x81, 0x0c, 0x12, 0x04, 0x81, 0x61, 0x02, 0x09, 0x80, 0x61, 0x02,
   0x02, 0x09, 0x24, 0x90, 0x40, 0x12, 0xc8, 0x00, 0x40, 0x00, 0x42, 0x02,
   0x0a, 0x24, 0x90, 0x40, 0x20, 0x90, 0x40, 0x40, 0x20, 0x90, 0x40, 0x40,
   0x20, 0x81, 0x04, 0x12, 0x48, 0x02, 0x19, 0x80, 0x02, 0x09, 0x28, 0x00,
   0x02, 0x81, 0x04, 0x12, 0x04, 0x81, 0x40, 0x02, 0x09, 0x80, 0x40, 0x02,
   0x02, 0x09, 0x24, 0x90, 0x40, 0xf2, 0x0f, 0x03, 0x40, 0x00, 0x42, 0x02,
   0x0e, 0x24, 0x90, 0x40, 0x20, 0x90, 0x40, 0x40, 0x20, 0x90, 0x7f, 0x40,
   0x20, 0x81, 0x04, 0x12, 0x48, 0xfe, 0x61, 0x80, 0x03, 0x09, 0x38, 0x00,
   0x02, 0x81, 0xfc, 0x13, 0x04, 0x81, 0x40, 0x02, 0x09, 0x80, 0x40, 0x02,
   0x02, 0x09, 0x24, 0x90, 0x40, 0x12, 0x00, 0x0c, 0x40, 0x00, 0x42, 0x02,
   0x1a, 0x24, 0x90, 0x40, 0x20, 0x90, 0x40, 0x40, 0x20, 0x90, 0x00, 0x40,
   0x20, 0x81, 0x04, 0x12, 0x48, 0x02, 0x80, 0x81, 0x06, 0x09, 0x68, 0x00,
   0x02, 0x81, 0x04, 0x10, 0x04, 0x81, 0x40, 0x02, 0x09, 0x80, 0x40, 0x02,
   0x82, 0x09, 0x24, 0x90, 0x40, 0x12, 0x00, 0x08, 0x80, 0x00, 0x42, 0x02,
   0x22, 0x24, 0x90, 0x41, 0x20, 0x98, 0x40, 0x40, 0x20, 0x90, 0x00, 0x40,
   0x30, 0x81, 0x04, 0x12, 0x48, 0x02, 0x00, 0x81, 0x08, 0x09, 0x88, 0x00,
   0x02, 0x81, 0x04, 0x10, 0x04, 0x81, 0x60, 0x02, 0x09, 0x80, 0x60, 0x02,
   0xc2, 0x10, 0x24, 0x90, 0x40, 0x22, 0x00, 0x4c, 0x00, 0x01, 0x42, 0x04,
   0x42, 0x24, 0x10, 0x63, 0x40, 0x88, 0x40, 0xc0, 0x20, 0x10, 0x01, 0x40,
   0x18, 0x82, 0x04, 0x12, 0x48, 0x04, 0x80, 0x81, 0x10, 0x11, 0x08, 0x01,
   0x06, 0x81, 0x08, 0x10, 0x04, 0x01, 0x21, 0x04, 0x19, 0x00, 0x21, 0x02,
   0x7e, 0xe0, 0x27, 0x90, 0x40, 0xc2, 0xc7, 0x47, 0x00, 0x3e, 0x4c, 0x78,
   0x82, 0x24, 0x10, 0x7e, 0x80, 0x87, 0x40, 0x80, 0x27, 0x10, 0x3e, 0xc0,
   0x0f, 0xfc, 0x04, 0x12, 0x48, 0xf8, 0xf8, 0x80, 0x20, 0xe1, 0x09, 0x02,
   0x3c, 0x81, 0xf0, 0x11, 0x04, 0x01, 0x1e, 0xf8, 0xf1, 0x00, 0x1e, 0x02,
   0x00, 0x00, 0x00, 0x00, 0x00, 0x00, 0x00, 0x00, 0x00, 0x00, 0x00, 0x00,
   0x00, 0x00, 0x00, 0x40, 0x00, 0x00, 0x00, 0x00, 0x00, 0x00, 0x00, 0x00,
   0x00, 0x00, 0x00, 0x00, 0x00, 0x00, 0x00, 0x00, 0x00, 0x00, 0x00, 0x00,
   0x00, 0x00, 0x00, 0x00, 0x00, 0x00, 0x00, 0x00, 0x00, 0x00, 0x00, 0x00,
   0x00, 0x00, 0x00, 0x00, 0x00, 0x00, 0x00, 0x00, 0x00, 0x00, 0x00, 0x00,
   0x00, 0x00, 0x00, 0x20, 0x00, 0x00, 0x00, 0x00, 0x00, 0x00, 0x00, 0x00,
   0x00, 0x00, 0x00, 0x00, 0x00, 0x00, 0x00, 0x00, 0x00, 0x00, 0x00, 0x00,
   0x00, 0x00, 0x00, 0x00, 0x00, 0x00, 0x00, 0x00, 0x00, 0x00, 0x00, 0x00,
   0x00, 0x00, 0x00, 0x00, 0x00, 0x00, 0x00, 0x00, 0x00, 0x00, 0x00, 0x00,
   0x00, 0x00, 0x00, 0x1f, 0x00, 0x00, 0x00, 0x00, 0x00, 0x00, 0x00, 0x00,
   0x00, 0x00, 0x00, 0x00, 0x00, 0x00, 0x00, 0x00, 0x00, 0x00, 0x00, 0x00,
   0x00, 0x00, 0x00, 0x00, 0x00, 0x00, 0x00, 0x00, 0x00, 0x00, 0x00, 0x00,
   0x00, 0x00, 0x00, 0x00, 0x00, 0x00, 0x00, 0x00, 0x00, 0x00, 0x00, 0x00,
   0x00, 0x00, 0x00, 0x00, 0x00, 0x00, 0x00, 0x00, 0x00, 0x00, 0x00, 0x00,
   0x00, 0x00, 0x00, 0x00, 0x00, 0x00, 0x00, 0x00, 0x00, 0x00, 0x00, 0x00,
   0x00, 0x00, 0x00, 0x00, 0x00, 0x00, 0x00, 0x00, 0x00, 0x00, 0x00, 0x00,
   0x00, 0x00, 0x00, 0x00, 0x00, 0x00, 0x00, 0x00, 0x00, 0x00, 0x00, 0x00,
   0x00, 0x00, 0x00, 0x00, 0x00, 0x00, 0x00, 0x00, 0x00, 0x00, 0x00, 0x00,
   0x00, 0x00, 0x00, 0x00, 0x00, 0x00, 0x00, 0x00, 0x00, 0x00, 0x00, 0x00,
   0x00, 0x00, 0x00, 0x00, 0x00, 0x00, 0x00, 0x00, 0x00, 0x00, 0x00, 0x00,
   0x00, 0x00, 0x00, 0x00, 0x00, 0x00, 0x00, 0x00, 0x00, 0x00, 0x00, 0x00,
   0x00, 0x00, 0x00, 0x00, 0x00, 0x00, 0x00, 0x00, 0x00, 0x00, 0x00, 0x00,
   0x00, 0x00, 0x00, 0x00, 0x00, 0x00, 0x00, 0x00, 0x00, 0x00, 0x00, 0x00,
   0x00, 0x00, 0x00, 0x00, 0x00, 0x00, 0x00, 0x00, 0x00, 0x00, 0x00, 0x00,
   0x00, 0x00, 0x00, 0x00, 0x00, 0x00, 0x00, 0x00, 0x00, 0x00, 0x00, 0x00,
   0x00, 0x00, 0x00, 0x00, 0x00, 0x00, 0x00, 0x00, 0x00, 0x00, 0x00, 0x00,
   0x00, 0x00, 0x00, 0x00, 0x00, 0x00, 0x00, 0x00, 0x00, 0x00, 0x00, 0x00,
   0x00, 0x00, 0x00, 0x00, 0x00, 0x00, 0x00, 0x00, 0x00, 0x00, 0x00, 0x00,
   0x00, 0x01, 0x00, 0x00, 0x3c, 0x00, 0x20, 0x00, 0x02, 0x10, 0x00, 0x00,
   0x00, 0x00, 0x04, 0x00, 0x00, 0x00, 0x00, 0x00, 0x20, 0x04, 0x00, 0x00,
   0x00, 0x00, 0x00, 0x00, 0x04, 0x00, 0x00, 0x20, 0x00, 0x00, 0x00, 0x00,
   0x00, 0x00, 0x00, 0x00, 0x00, 0x08, 0x01, 0x00, 0x00, 0x00, 0x00, 0x00,
   0x00, 0x01, 0x00, 0x00, 0x82, 0x00, 0x20, 0x00, 0x02, 0x10, 0x00, 0x00,
   0x00, 0x00, 0x04, 0x00, 0x00, 0x00, 0x00, 0x00, 0x24, 0x04, 0x00, 0x00,
   0x00, 0x00, 0x00, 0x00, 0x04, 0x00, 0x00, 0x20, 0x00, 0x00, 0x00, 0x00,
   0x00, 0x00, 0x00, 0x00, 0x00, 0x08, 0x01, 0x00, 0x00, 0x00, 0x00, 0x00,
   0x02, 0x01, 0x00, 0x00, 0x81, 0x00, 0x20, 0x00, 0x02, 0x10, 0x00, 0x00,
   0x01, 0x08, 0x04, 0x00, 0x00, 0x00, 0x00, 0x00, 0x24, 0x04, 0x00, 0x00,
   0x00, 0x00, 0x00, 0x00, 0x04, 0x00, 0x00, 0x20, 0x00, 0x00, 0x00, 0x00,
   0x00, 0x00, 0x02, 0x00, 0x00, 0x08, 0x01, 0x00, 0x00, 0x00, 0x00, 0x00,
   0x02, 0x01, 0x00, 0x00, 0x01, 0x00, 0x20, 0x00, 0x02, 0x10, 0x00, 0x00,
   0x01, 0x08, 0x04, 0x00, 0x00, 0x00, 0x00, 0x00, 0x20, 0x04, 0x00, 0x00,
   0x00, 0x00, 0x00, 0x00, 0x04, 0x00, 0x00, 0x20, 0x00, 0x00, 0x00, 0x00,
   0x00, 0x00, 0x02, 0x00, 0x00, 0x08, 0x01, 0x00, 0x00, 0x00, 0x00, 0x00,
   0x02, 0x01, 0x00, 0x00, 0x01, 0x00, 0x20, 0x00, 0x02, 0x10, 0x00, 0x00,
   0x01, 0x08, 0x04, 0x00, 0x00, 0x00, 0x00, 0x00, 0x20, 0x04, 0x00, 0x00,
   0x00, 0x00, 0x00, 0x00, 0x04, 0x00, 0x00, 0x20, 0x00, 0x00, 0x00, 0x00,
   0x00, 0x00, 0x02, 0x00, 0x00, 0x08, 0x01, 0x00, 0x00, 0x00, 0x00, 0x00,
   0x3e, 0x3f, 0xf0, 0x00, 0xbf, 0xe0, 0x21, 0xf0, 0x03, 0xf0, 0x43, 0x20,
   0x1f, 0xf8, 0xfc, 0xc0, 0x43, 0x10, 0x08, 0x82, 0x24, 0x04, 0xe0, 0xe1,
   0xe1, 0xf7, 0xc1, 0x03, 0xfc, 0xe0, 0x83, 0x27, 0x08, 0xf0, 0x10, 0x84,
   0x87, 0x1f, 0x3e, 0x81, 0xf8, 0x08, 0x21, 0x08, 0x00, 0x00, 0x00, 0x00,
   0x02, 0x41, 0x18, 0x01, 0x81, 0x30, 0x22, 0x08, 0x03, 0x30, 0x44, 0x20,
   0x01, 0x08, 0x04, 0x61, 0x44, 0x10, 0x08, 0x82, 0x24, 0x04, 0x10, 0x10,
   0x22, 0x0c, 0x63, 0x04, 0x0c, 0x01, 0x46, 0x20, 0x04, 0x18, 0x11, 0xc4,
   0x88, 0x20, 0x02, 0x81, 0x80, 0x09, 0x21, 0x08, 0x00, 0x00, 0x00, 0x00,
   0x02, 0x81, 0x0c, 0x02, 0x81, 0x18, 0x24, 0x0c, 0x02, 0x10, 0x4c, 0x20,
   0x01, 0x08, 0x04, 0x32, 0x88, 0x08, 0x10, 0x46, 0x24, 0x04, 0x08, 0x18,
   0x26, 0x08, 0x32, 0x08, 0x04, 0x03, 0x24, 0x20, 0x03, 0x0c, 0x22, 0x62,
   0x90, 0x40, 0x02, 0x81, 0x00, 0x09, 0x41, 0x04, 0x00, 0x00, 0x00, 0x00,
   0x02, 0x81, 0x04, 0x02, 0x81, 0x08, 0x24, 0x04, 0x02, 0x10, 0x48, 0x20,
   0x01, 0x08, 0x04, 0x12, 0x88, 0x08, 0x10, 0x45, 0x24, 0x04, 0x08, 0x08,
   0x24, 0x08, 0x12, 0x08, 0x04, 0x02, 0x24, 0xa0, 0x00, 0x04, 0x22, 0x22,
   0x90, 0x40, 0x02, 0x81, 0x00, 0x09, 0x41, 0x04, 0x00, 0x00, 0x00, 0x00,
   0x02, 0x81, 0xfc, 0x03, 0x81, 0xf8, 0x27, 0x04, 0x02, 0x10, 0x48, 0x20,
   0x01, 0x08, 0x04, 0xf2, 0x8f, 0x08, 0x10, 0x45, 0x24, 0x04, 0x08, 0x08,
   0x24, 0x08, 0xf2, 0x0f, 0x04, 0xe2, 0x27, 0xe0, 0x00, 0xfc, 0x23, 0xe2,
   0x9f, 0x40, 0x02, 0x81, 0xf8, 0x09, 0x41, 0x04, 0x00, 0x00, 0x00, 0x00,
   0x02, 0x81, 0x04, 0x00, 0x81, 0x08, 0x20, 0x04, 0x02, 0x10, 0x48, 0x20,
   0x01, 0x08, 0x04, 0x12, 0x00, 0x05, 0xa0, 0x28, 0x24, 0x04, 0x08, 0x08,
   0x24, 0x08, 0x12, 0x00, 0x04, 0x32, 0x24, 0xa0, 0x01, 0x04, 0x40, 0x21,
   0x80, 0x40, 0x02, 0x81, 0x0c, 0x09, 0x81, 0x02, 0x00, 0x00, 0x00, 0x00,
   0x02, 0x81, 0x04, 0x00, 0x81, 0x08, 0x20, 0x0c, 0x02, 0x10, 0x4c, 0x20,
   0x01, 0x08, 0x04, 0x12, 0x00, 0x05, 0xa0, 0x28, 0x24, 0x04, 0x08, 0x08,
   0x26, 0x08, 0x12, 0x00, 0x04, 0x13, 0x24, 0x20, 0x02, 0x04, 0x40, 0x21,
   0x80, 0x40, 0x02, 0x81, 0x04, 0x09, 0x81, 0x02, 0x00, 0x00, 0x00, 0x00,
   0x06, 0x81, 0x08, 0x00, 0x81, 0x10, 0x20, 0x18, 0x22, 0x10, 0x86, 0x20,
   0x03, 0x18, 0x04, 0x22, 0x00, 0x07, 0x60, 0x38, 0x24, 0x04, 0x10, 0x10,
   0x22, 0x08, 0x22, 0x00, 0x84, 0x31, 0x44, 0x20, 0x04, 0x08, 0xc0, 0x41,
   0x80, 0x40, 0x06, 0x82, 0x0c, 0x09, 0x81, 0x43, 0x00, 0x00, 0x00, 0x00,
   0x3c, 0x81, 0xf0, 0x01, 0x81, 0xe0, 0xc3, 0xf0, 0x23, 0xf0, 0x03, 0x3f,
   0x1e, 0xf0, 0x04, 0xc2, 0x07, 0x02, 0x40, 0x10, 0xc4, 0x18, 0xe0, 0xe1,
   0x21, 0x08, 0xc2, 0x07, 0xfc, 0xe0, 0x87, 0x27, 0x08, 0xf0, 0x81, 0x80,
   0x8f, 0x40, 0x3c, 0xfc, 0xf8, 0x31, 0x06, 0x41, 0x00, 0x00, 0x00, 0x00,
   0x00, 0x00, 0x00, 0x00, 0x00, 0x00, 0x00, 0x00, 0x20, 0x00, 0x00, 0x00,
   0x00, 0x00, 0x00, 0x00, 0x00, 0x02, 0x00, 0x00, 0x00, 0x00, 0x00, 0x00,
   0x00, 0x00, 0x00, 0x00, 0x00, 0x00, 0x00, 0x00, 0x00, 0x00, 0x00, 0x00,
   0x00, 0x00, 0x00, 0x00, 0x00, 0x00, 0x00, 0x01, 0x00, 0x00, 0x00, 0x00,
   0x00, 0x00, 0x00, 0x00, 0x00, 0x00, 0x00, 0x00, 0x20, 0x00, 0x00, 0x00,
   0x00, 0x00, 0x00, 0x00, 0x00, 0x01, 0x00, 0x00, 0x00, 0x00, 0x00, 0x00,
   0x00, 0x00, 0x00, 0x00, 0x00, 0x00, 0x00, 0x00, 0x00, 0x00, 0x00, 0x00,
   0x00, 0x00, 0x00, 0x00, 0x00, 0x00, 0x80, 0x00, 0x00, 0x00, 0x00, 0x00,
   0x00, 0x00, 0x00, 0x00, 0x00, 0x00, 0x00, 0x00, 0x10, 0x00, 0x00, 0x00,
   0x00, 0x00, 0x00, 0x00, 0xc0, 0x01, 0x00, 0x00, 0x00, 0x00, 0x00, 0x00,
   0x00, 0x00, 0x00, 0x00, 0x00, 0x00, 0x00, 0x00, 0x00, 0x00, 0x00, 0x00,
   0x00, 0x00, 0x00, 0x00, 0x00, 0x00, 0xe0, 0x00, 0x00, 0x00, 0x00, 0x00,
   0x00, 0x00, 0x00, 0x00, 0x00, 0x00, 0x00, 0x00, 0x00, 0x00, 0x00, 0x00,
   0x00, 0x00, 0x00, 0x00, 0x00, 0x00, 0x00, 0x00, 0x00, 0x00, 0x00, 0x00,
   0x00, 0x00, 0x00, 0x00, 0x00, 0x00, 0x00, 0x00, 0x00, 0x00, 0x00, 0x00,
   0x00, 0x00, 0x00, 0x00, 0x00, 0x00, 0x00, 0x00, 0x00, 0x00, 0x00, 0x00,
   0x00, 0x00, 0x00, 0x00, 0x00, 0x00, 0x00, 0x00, 0x00, 0x00, 0x00, 0x00,
   0x00, 0x00, 0x00, 0x00, 0x00, 0x00, 0x00, 0x00, 0x00, 0x00, 0x00, 0x00,
   0x00, 0x00, 0x00, 0x00, 0x00, 0x00, 0x00, 0x00, 0x00, 0x00, 0x00, 0x00,
   0x00, 0x00, 0x00, 0x00, 0x00, 0x00, 0x00, 0x00, 0x00, 0x00, 0x00, 0x00,
   0x00, 0x00, 0x00, 0x00, 0x00, 0x00, 0x00, 0x00, 0x00, 0x00, 0x00, 0x00,
   0x00, 0x00, 0x00, 0x00, 0x00, 0x00, 0x00, 0x00, 0x00, 0x00, 0x00, 0x00,
   0x00, 0x00, 0x00, 0x00, 0x00, 0x00, 0x00, 0x00, 0x00, 0x00, 0x00, 0x00,
   0x00, 0x00, 0x00, 0x00, 0x00, 0x00, 0x00, 0x00, 0x00, 0x00, 0x00, 0x00 };
