#define leaf_width 20
#define leaf_height 12
static unsigned char leaf_bits[] = {
   0x00, 0x01, 0x00, 0x80, 0x03, 0x00, 0x80, 0x17, 0x00, 0x00, 0x1f, 0x07,
   0x80, 0xff, 0x0f, 0x00, 0xff, 0x07, 0x00, 0xfe, 0x03, 0x00, 0xfe, 0x00,
   0x00, 0x7c, 0x00, 0x00, 0xfc, 0x03, 0x00, 0x1c, 0x00, 0x00, 0x0c, 0x00 };
