#define title_width 385
#define title_height 50
static unsigned char title_bits[] = {
   0x00, 0x00, 0x00, 0x00, 0x00, 0x00, 0x00, 0x00, 0x00, 0x00, 0x00, 0x00,
   0x00, 0x00, 0x00, 0x00, 0x00, 0x00, 0x00, 0x00, 0x00, 0x00, 0x00, 0x00,
   0x00, 0x00, 0x00, 0x00, 0x00, 0x00, 0x00, 0x00, 0x00, 0x00, 0x00, 0x00,
   0x00, 0x00, 0x00, 0x00, 0x00, 0x00, 0x00, 0x00, 0x00, 0x00, 0x00, 0x00,
   0x00, 0x00, 0x00, 0x00, 0x00, 0x00, 0x00, 0x00, 0x00, 0x00, 0x00, 0x00,
   0x00, 0x00, 0x00, 0x00, 0x00, 0x00, 0x00, 0x00, 0x00, 0x00, 0x00, 0x00,
   0x00, 0x00, 0x00, 0x00, 0x00, 0x00, 0x00, 0x00, 0x00, 0x00, 0x00, 0x00,
   0x00, 0x00, 0x00, 0x0d, 0xc0, 0x01, 0x00, 0x00, 0x00, 0x00, 0x00, 0x00,
   0x00, 0x00, 0x00, 0x00, 0x00, 0x00, 0x00, 0x00, 0x00, 0x00, 0x00, 0x00,
   0x00, 0x00, 0x00, 0x00, 0x00, 0x00, 0x00, 0x00, 0x00, 0x00, 0x00, 0x00,
   0x00, 0x00, 0x00, 0x00, 0x00, 0x00, 0x00, 0x00, 0x00, 0x00, 0x00, 0x00,
   0x00, 0x00, 0x00, 0xe0, 0x0f, 0xf0, 0x07, 0x00, 0x00, 0x00, 0x00, 0x00,
   0x00, 0x00, 0x00, 0x00, 0x00, 0x00, 0x00, 0x00, 0x00, 0x00, 0x00, 0x00,
   0x00, 0x00, 0x00, 0x00, 0x00, 0x00, 0x00, 0x00, 0x00, 0x00, 0x00, 0x00,
   0x00, 0x00, 0x00, 0x00, 0x00, 0x00, 0x00, 0x00, 0x00, 0x00, 0x00, 0x00,
   0x00, 0x00, 0x00, 0x00, 0xe0, 0x0f, 0xf0, 0x07, 0x00, 0x00, 0x00, 0x00,
   0x00, 0x00, 0x00, 0x00, 0x00, 0xc0, 0x7f, 0x00, 0x00, 0x00, 0x00, 0x00,
   0x00, 0x00, 0x00, 0x00, 0x00, 0x00, 0x00, 0x00, 0x00, 0x00, 0x00, 0x00,
   0x00, 0x00, 0x80, 0xff, 0x00, 0x00, 0x00, 0x00, 0x00, 0x00, 0x00, 0x00,
   0x00, 0x00, 0x00, 0x00, 0x00, 0xe0, 0x0f, 0xf8, 0x0f, 0x00, 0x00, 0x00,
   0x00, 0x00, 0x00, 0x00, 0x00, 0x00, 0xf0, 0xff, 0x07, 0x00, 0x00, 0x00,
   0x00, 0x00, 0x00, 0x00, 0x00, 0x00, 0x00, 0x00, 0x00, 0x00, 0x00, 0x00,
   0x00, 0x00, 0x00, 0xf0, 0xff, 0x0f, 0x00, 0x00, 0x00, 0x00, 0x00, 0x00,
   0x00, 0x00, 0x00, 0x00, 0x00, 0x00, 0xe0, 0x0f, 0xf8, 0x0f, 0x00, 0x00,
   0x00, 0x00, 0x00, 0x00, 0x00, 0x00, 0x00, 0xfc, 0xff, 0x1f, 0x00, 0x00,
   0x00, 0x00, 0x00, 0x00, 0x00, 0x00, 0x00, 0x00, 0x00, 0x00, 0x00, 0xe0,
   0x00, 0x00, 0x00, 0x00, 0xf8, 0xff, 0x3f, 0x00, 0x00, 0x00, 0x00, 0x00,
   0x00, 0x00, 0x00, 0x00, 0x00, 0x00, 0x00, 0xe0, 0x0f, 0xf8, 0x07, 0x00,
   0x00, 0x00, 0x00, 0x00, 0x00, 0x00, 0x00, 0x00, 0xff, 0xff, 0x1f, 0x00,
   0x00, 0x00, 0x00, 0x00, 0x00, 0x00, 0x00, 0x00, 0x00, 0x00, 0x00, 0x00,
   0xfe, 0x00, 0x00, 0x00, 0x00, 0xfe, 0xff, 0x3f, 0x00, 0x00, 0x00, 0x00,
   0x00, 0x00, 0x00, 0x00, 0x00, 0x00, 0x00, 0x00, 0xe0, 0x0f, 0xf0, 0x07,
   0x00, 0x00, 0x00, 0x00, 0x00, 0x00, 0x00, 0x00, 0x80, 0xff, 0xff, 0x0f,
   0x00, 0x00, 0x00, 0x00, 0x00, 0x00, 0x00, 0x00, 0x00, 0x00, 0x00, 0x00,
   0x00, 0xfe, 0x00, 0x00, 0x00, 0x00, 0xff, 0xff, 0x1f, 0x00, 0x00, 0x00,
   0x00, 0x00, 0x00, 0x00, 0x00, 0x00, 0x00, 0x00, 0x00, 0xe0, 0x0f, 0xf0,
   0x07, 0x00, 0x00, 0x00, 0x00, 0x00, 0x00, 0x00, 0x00, 0xc0, 0xff, 0xff,
   0x0f, 0x00, 0x00, 0x00, 0x00, 0x00, 0x00, 0x00, 0x00, 0x00, 0x00, 0x00,
   0x00, 0x00, 0xfe, 0x00, 0x00, 0x00, 0x80, 0xff, 0xff, 0x1f, 0x00, 0x00,
   0x00, 0x00, 0x00, 0x00, 0x00, 0x00, 0x00, 0x00, 0x00, 0x00, 0xe0, 0x0f,
   0xc0, 0x01, 0x00, 0x00, 0x00, 0x00, 0x00, 0x00, 0x00, 0x00, 0xc0, 0xff,
   0xff, 0x0f, 0x00, 0x00, 0x00, 0x00, 0x00, 0x00, 0x00, 0x00, 0x00, 0x00,
   0x00, 0x00, 0x00, 0xfe, 0x00, 0x00, 0x00, 0xc0, 0xff, 0xff, 0x1f, 0x00,
   0x00, 0x00, 0x00, 0x00, 0x00, 0x00, 0x00, 0x00, 0x00, 0x00, 0x00, 0xe0,
   0x0f, 0x00, 0x00, 0x00, 0x00, 0x00, 0x00, 0x00, 0x00, 0x00, 0x00, 0xe0,
   0xff, 0x80, 0x07, 0x00, 0x00, 0x00, 0x00, 0x00, 0x00, 0x00, 0x00, 0x00,
   0x00, 0x00, 0x00, 0x00, 0xfe, 0x00, 0x00, 0x00, 0xc0, 0xff, 0x01, 0x0f,
   0x00, 0x00, 0x00, 0x00, 0x00, 0x00, 0x00, 0x00, 0x00, 0x00, 0x00, 0x00,
   0xe0, 0x0f, 0x00, 0x00, 0x00, 0x00, 0x00, 0x00, 0x00, 0x00, 0x00, 0x00,
   0xf0, 0x3f, 0x00, 0x04, 0x00, 0x00, 0x00, 0x00, 0x00, 0x00, 0x00, 0x00,
   0x00, 0x00, 0x00, 0x00, 0x00, 0xfe, 0x00, 0x00, 0x00, 0xe0, 0x7f, 0x00,
   0x08, 0x00, 0x00, 0x00, 0x00, 0x00, 0x00, 0x00, 0x00, 0x00, 0x00, 0x00,
   0x00, 0xe0, 0x0f, 0x00, 0x00, 0x00, 0x00, 0x00, 0x00, 0x00, 0x00, 0x00,
   0x00, 0xf0, 0x1f, 0x00, 0x00, 0x80, 0xff, 0x00, 0x00, 0xe0, 0x3f, 0x00,
   0xf8, 0x0f, 0x00, 0xf8, 0x03, 0x00, 0xfe, 0x00, 0x00, 0x00, 0xe0, 0x3f,
   0x00, 0x00, 0x00, 0x00, 0x00, 0x00, 0x00, 0xff, 0x01, 0x00, 0xc0, 0x7f,
   0x00, 0xf0, 0xe7, 0x0f, 0x00, 0x00, 0x80, 0xff, 0x00, 0x00, 0xf0, 0x1f,
   0x00, 0x00, 0xf8, 0x0f, 0x00, 0x00, 0xf8, 0xff, 0x07, 0x00, 0xff, 0xff,
   0xc0, 0xff, 0x3f, 0x00, 0xff, 0x0f, 0x00, 0xfe, 0xff, 0x01, 0x00, 0xf0,
   0x1f, 0x00, 0x00, 0x80, 0x3f, 0xe0, 0x0f, 0xf0, 0xff, 0x0f, 0x00, 0xfe,
   0xff, 0x01, 0xfc, 0xff, 0x0f, 0xf0, 0x07, 0xf8, 0xff, 0x07, 0x80, 0xff,
   0xff, 0x00, 0x00, 0xf8, 0x07, 0x00, 0x00, 0xf8, 0xff, 0x0f, 0x80, 0xff,
   0xff, 0xe0, 0xff, 0x3f, 0xc0, 0xff, 0x3f, 0x00, 0xfe, 0xff, 0x01, 0x00,
   0xf0, 0x0f, 0x00, 0x00, 0x80, 0x3f, 0xe0, 0x0f, 0xf0, 0xff, 0x1f, 0x00,
   0xff, 0xff, 0x01, 0xff, 0xff, 0x0f, 0xf0, 0x07, 0xf8, 0xff, 0x0f, 0x80,
   0xff, 0xff, 0x01, 0x00, 0xf8, 0x07, 0x00, 0x00, 0xf8, 0xff, 0x1f, 0x80,
   0xff, 0x7f, 0xe0, 0xff, 0x1f, 0xe0, 0xff, 0x7f, 0x00, 0xfe, 0xff, 0x01,
   0x00, 0xf0, 0x0f, 0x00, 0x00, 0x80, 0x3f, 0xe0, 0x0f, 0xf0, 0xff, 0x3f,
   0x00, 0xff, 0xff, 0x80, 0xff, 0xff, 0x0f, 0xf0, 0x07, 0xf8, 0xff, 0x1f,
   0x80, 0xff, 0xff, 0x03, 0x00, 0xfc, 0x07, 0x00, 0x00, 0xf0, 0xff, 0x3f,
   0x80, 0xff, 0x7f, 0xe0, 0xff, 0x1f, 0xf0, 0xff, 0xff, 0x00, 0xfe, 0xff,
   0x01, 0x00, 0xf8, 0x0f, 0x00, 0x00, 0x80, 0x3f, 0xe0, 0x0f, 0xe0, 0xff,
   0x7f, 0x00, 0xff, 0xff, 0x80, 0xff, 0xff, 0x0f, 0xf0, 0x07, 0xf0, 0xff,
   0x3f, 0x80, 0xff, 0xff, 0x03, 0x00, 0xfc, 0x03, 0x00, 0x00, 0xf0, 0xff,
   0x3f, 0x80, 0xff, 0x7f, 0xe0, 0xff, 0x1f, 0xf8, 0xff, 0xff, 0x01, 0xfe,
   0xff, 0x01, 0x00, 0xf8, 0x07, 0x00, 0x00, 0x80, 0x3f, 0xe0, 0x0f, 0xe0,
   0xff, 0x7f, 0x00, 0xff, 0xff, 0xc0, 0xff, 0xff, 0x0f, 0xf0, 0x07, 0xf0,
   0xff, 0x3f, 0x80, 0xff, 0xff, 0x07, 0x00, 0xfc, 0x03, 0x00, 0x00, 0x50,
   0xc0, 0x3f, 0x80, 0x3f, 0x50, 0xe0, 0x0f, 0x14, 0xf8, 0x0f, 0xff, 0x01,
   0xfe, 0xff, 0x01, 0x00, 0xf8, 0x07, 0x00, 0x00, 0x80, 0x3f, 0xe0, 0x0f,
   0xa0, 0x80, 0x7f, 0x00, 0x7f, 0xa0, 0xe0, 0x3f, 0xf0, 0x0f, 0xf0, 0x07,
   0x50, 0xc0, 0x3f, 0x80, 0x3f, 0xf8, 0x07, 0x00, 0xfc, 0x03, 0x00, 0x00,
   0x00, 0x80, 0x7f, 0x80, 0x3f, 0x00, 0xe0, 0x0f, 0x00, 0xfc, 0x03, 0xfc,
   0x03, 0xfe, 0x00, 0x00, 0x00, 0xf8, 0x07, 0x00, 0x00, 0x80, 0x3f, 0xe0,
   0x0f, 0x00, 0x00, 0xff, 0x00, 0x7f, 0x00, 0xe0, 0x1f, 0xe0, 0x0f, 0xf0,
   0x07, 0x00, 0x80, 0x7f, 0x80, 0x3f, 0xf0, 0x0f, 0x00, 0xfc, 0x03, 0x00,
   0x00, 0x00, 0x00, 0x7f, 0x80, 0x3f, 0x00, 0xe0, 0x0f, 0x00, 0xfc, 0x01,
   0xf8, 0x03, 0xfe, 0x00, 0x00, 0x00, 0xf8, 0x07, 0x00, 0x00, 0x80, 0x3f,
   0xe0, 0x0f, 0x00, 0x00, 0xfe, 0x00, 0x7f, 0x00, 0xe0, 0x0f, 0xe0, 0x0f,
   0xf0, 0x07, 0x00, 0x00, 0x7f, 0x80, 0x3f, 0xf0, 0x0f, 0x00, 0xfc, 0x03,
   0x00, 0x00, 0x00, 0x00, 0x7f, 0x80, 0x3f, 0x00, 0xe0, 0x0f, 0x00, 0xfc,
   0x01, 0xf8, 0x03, 0xfe, 0x00, 0x00, 0x00, 0xf8, 0x07, 0x80, 0x7f, 0x80,
   0x3f, 0xe0, 0x0f, 0x00, 0x00, 0xfe, 0x00, 0x7f, 0x00, 0xf0, 0x0f, 0xe0,
   0x0f, 0xf0, 0x07, 0x00, 0x00, 0x7f, 0x80, 0x3f, 0xe0, 0x0f, 0x00, 0xfc,
   0x03, 0x00, 0x00, 0x00, 0x00, 0x7f, 0x80, 0x3f, 0x00, 0xe0, 0x0f, 0x00,
   0xfe, 0x00, 0xf0, 0x07, 0xfe, 0x00, 0x00, 0x00, 0xf8, 0x07, 0x80, 0x7f,
   0x80, 0x3f, 0xe0, 0x0f, 0x00, 0x00, 0xfe, 0x00, 0x7f, 0x00, 0xf0, 0x07,
   0xe0, 0x0f, 0xf0, 0x07, 0x00, 0x00, 0x7f, 0x80, 0x3f, 0xe0, 0x0f, 0x00,
   0xfc, 0x03, 0x00, 0x00, 0x80, 0xff, 0x7f, 0x80, 0x3f, 0x00, 0xe0, 0x0f,
   0x00, 0xfe, 0x00, 0xf0, 0x07, 0xfe, 0x00, 0x00, 0x00, 0xf8, 0x07, 0x80,
   0x7f, 0x80, 0x3f, 0xe0, 0x0f, 0x00, 0xff, 0xff, 0x00, 0x7f, 0x00, 0xf0,
   0x07, 0xe0, 0x0f, 0xf0, 0x07, 0x80, 0xff, 0x7f, 0x80, 0x3f, 0xe0, 0x0f,
   0x00, 0xfc, 0x03, 0x00, 0x00, 0xe0, 0xff, 0x7f, 0x80, 0x3f, 0x00, 0xe0,
   0x0f, 0x00, 0xfe, 0x00, 0xf0, 0x07, 0xfe, 0x00, 0x00, 0x00, 0xf8, 0x07,
   0x80, 0x7f, 0x80, 0x3f, 0xe0, 0x0f, 0xc0, 0xff, 0xff, 0x00, 0x7f, 0x00,
   0xf0, 0x07, 0xe0, 0x0f, 0xf0, 0x07, 0xe0, 0xff, 0x7f, 0x80, 0x3f, 0xe0,
   0x0f, 0x00, 0xfc, 0x07, 0x00, 0x00, 0xf8, 0xff, 0x7f, 0x80, 0x3f, 0x00,
   0xe0, 0x0f, 0x00, 0xfe, 0x00, 0xf0, 0x07, 0xfe, 0x00, 0x00, 0x00, 0xf8,
   0x0f, 0x80, 0x7f, 0x80, 0x3f, 0xe0, 0x0f, 0xf0, 0xff, 0xff, 0x00, 0x7f,
   0x00, 0xf0, 0x07, 0xe0, 0x0f, 0xf0, 0x07, 0xf8, 0xff, 0x7f, 0x80, 0x3f,
   0xe0, 0x0f, 0x00, 0xfc, 0x07, 0x00, 0x00, 0xf8, 0xff, 0x7f, 0x80, 0x3f,
   0x00, 0xe0, 0x0f, 0x00, 0xfe, 0x00, 0xf0, 0x07, 0xfe, 0x00, 0x00, 0x00,
   0xf8, 0x0f, 0x80, 0x7f, 0x80, 0x3f, 0xe0, 0x0f, 0xf0, 0xff, 0xff, 0x00,
   0x7f, 0x00, 0xf0, 0x07, 0xe0, 0x0f, 0xf0, 0x07, 0xf8, 0xff, 0x7f, 0x80,
   0x3f, 0xe0, 0x0f, 0x00, 0xf8, 0x07, 0x00, 0x00, 0xfc, 0xff, 0x7f, 0x80,
   0x3f, 0x00, 0xe0, 0x0f, 0x00, 0xfe, 0x00, 0xf0, 0x07, 0xfe, 0x00, 0x00,
   0x00, 0xf0, 0x0f, 0x80, 0x7f, 0x80, 0x3f, 0xe0, 0x0f, 0xf8, 0xff, 0xff,
   0x00, 0x7f, 0x00, 0xf0, 0x07, 0xe0, 0x0f, 0xf0, 0x07, 0xfc, 0xff, 0x7f,
   0x80, 0x3f, 0xe0, 0x0f, 0x00, 0xf8, 0x0f, 0x00, 0x00, 0xfe, 0x03, 0x7f,
   0x80, 0x3f, 0x00, 0xe0, 0x0f, 0x00, 0xfe, 0x00, 0xf0, 0x07, 0xfe, 0x00,
   0x00, 0x00, 0xf0, 0x1f, 0x80, 0x7f, 0x80, 0x3f, 0xe0, 0x0f, 0xfc, 0x07,
   0xfe, 0x00, 0x7f, 0x00, 0xf0, 0x07, 0xe0, 0x0f, 0xf0, 0x07, 0xfe, 0x03,
   0x7f, 0x80, 0x3f, 0xe0, 0x0f, 0x00, 0xf8, 0x0f, 0x00, 0x00, 0xfe, 0x00,
   0x7f, 0x80, 0x3f, 0x00, 0xe0, 0x0f, 0x00, 0xfe, 0x01, 0xf8, 0x07, 0xfe,
   0x00, 0x00, 0x00, 0xf0, 0x1f, 0x80, 0x7f, 0x80, 0x3f, 0xe0, 0x0f, 0xfc,
   0x01, 0xfe, 0x00, 0x7f, 0x00, 0xf0, 0x0f, 0xe0, 0x0f, 0xf0, 0x07, 0xfe,
   0x00, 0x7f, 0x80, 0x3f, 0xe0, 0x0f, 0x00, 0xf8, 0x1f, 0x00, 0x00, 0xfe,
   0x00, 0x7f, 0x80, 0x3f, 0x00, 0xe0, 0x0f, 0x00, 0xfc, 0x01, 0xf8, 0x03,
   0xfe, 0x00, 0x00, 0x00, 0xe0, 0x3f, 0x80, 0x7f, 0x80, 0x3f, 0xe0, 0x0f,
   0xfc, 0x01, 0xfe, 0x00, 0x7f, 0x00, 0xe0, 0x0f, 0xe0, 0x0f, 0xf0, 0x07,
   0xfe, 0x00, 0x7f, 0x80, 0x3f, 0xe0, 0x0f, 0x00, 0xf0, 0x3f, 0x00, 0x08,
   0xfe, 0x00, 0x7f, 0x80, 0x3f, 0x00, 0xe0, 0x0f, 0x00, 0xfc, 0x01, 0xf8,
   0x03, 0xfe, 0x01, 0x00, 0x00, 0xe0, 0x7f, 0x80, 0x7f, 0x80, 0x7f, 0xe0,
   0x0f, 0xfc, 0x01, 0xfe, 0x00, 0x7f, 0x00, 0xe0, 0x1f, 0xe0, 0x0f, 0xf0,
   0x07, 0xfe, 0x00, 0x7f, 0x80, 0x3f, 0xe0, 0x0f, 0x00, 0xf0, 0xff, 0x00,
   0x0f, 0xfe, 0x01, 0x7f, 0x80, 0x3f, 0x00, 0xe0, 0x0f, 0x00, 0xfc, 0x03,
   0xfc, 0x03, 0xfe, 0x01, 0x00, 0x00, 0xc0, 0xff, 0x81, 0x7f, 0x00, 0x7f,
   0xe0, 0x0f, 0xfc, 0x03, 0xfe, 0x00, 0x7f, 0x00, 0xe0, 0x1f, 0xe0, 0x0f,
   0xf0, 0x07, 0xfe, 0x01, 0x7f, 0x80, 0x3f, 0xe0, 0x0f, 0x00, 0xe0, 0xff,
   0xff, 0x1f, 0xfe, 0x01, 0x7f, 0x80, 0x3f, 0x00, 0xe0, 0x0f, 0x00, 0xf8,
   0x0f, 0xff, 0x01, 0xfc, 0x83, 0x01, 0x00, 0xc0, 0xff, 0xff, 0x7f, 0x00,
   0xff, 0xe0, 0x0f, 0xfc, 0x03, 0xfe, 0x00, 0x7f, 0x00, 0xc0, 0x7f, 0xe0,
   0x0f, 0xf0, 0x07, 0xfe, 0x01, 0x7f, 0x80, 0x3f, 0xe0, 0x0f, 0x00, 0xc0,
   0xff, 0xff, 0x1f, 0xfe, 0xff, 0x7f, 0x80, 0x3f, 0x00, 0xe0, 0x0f, 0x00,
   0xf8, 0xff, 0xff, 0x01, 0xfc, 0xff, 0x01, 0x00, 0x80, 0xff, 0xff, 0x7f,
   0x00, 0xff, 0xff, 0x0f, 0xfc, 0xff, 0xff, 0x00, 0x7f, 0x00, 0xc0, 0xff,
   0xff, 0x0f, 0xf0, 0x07, 0xfe, 0xff, 0x7f, 0x80, 0x3f, 0xe0, 0x0f, 0x00,
   0x80, 0xff, 0xff, 0x1f, 0xfc, 0xff, 0x7f, 0x80, 0x3f, 0x00, 0xe0, 0x0f,
   0x00, 0xf0, 0xff, 0xff, 0x00, 0xfc, 0xff, 0x03, 0x00, 0x00, 0xff, 0xff,
   0x7f, 0x00, 0xfe, 0xff, 0x0f, 0xf8, 0xff, 0xff, 0x00, 0x7f, 0x00, 0x80,
   0xff, 0xff, 0x0f, 0xf0, 0x07, 0xfc, 0xff, 0x7f, 0x80, 0x3f, 0xe0, 0x0f,
   0x00, 0x00, 0xff, 0xff, 0x3f, 0xfc, 0xff, 0x7f, 0x80, 0x3f, 0x00, 0xe0,
   0x0f, 0x00, 0xe0, 0xff, 0x7f, 0x00, 0xf8, 0xff, 0x03, 0x00, 0x00, 0xfe,
   0xff, 0x7f, 0x00, 0xfe, 0xff, 0x0f, 0xf8, 0xff, 0xff, 0x00, 0x7f, 0x00,
   0x00, 0xff, 0xff, 0x0f, 0xf0, 0x07, 0xfc, 0xff, 0x7f, 0x80, 0x3f, 0xe0,
   0x0f, 0x00, 0x00, 0xfe, 0xff, 0x3f, 0xf8, 0xff, 0x7f, 0x80, 0x3f, 0x00,
   0xe0, 0x0f, 0x00, 0xc0, 0xff, 0x3f, 0x00, 0xf0, 0xff, 0x03, 0x00, 0x00,
   0xfc, 0xff, 0x7f, 0x00, 0xfc, 0xff, 0x0f, 0xf0, 0xff, 0xff, 0x00, 0x7f,
   0x00, 0x00, 0xfe, 0xff, 0x0f, 0xf0, 0x07, 0xf8, 0xff, 0x7f, 0x80, 0x3f,
   0xe0, 0x0f, 0x00, 0x00, 0xf8, 0xff, 0x0f, 0xe0, 0xff, 0x7f, 0x80, 0x3f,
   0x00, 0xe0, 0x0f, 0x00, 0x00, 0xff, 0x0f, 0x00, 0xe0, 0xff, 0x03, 0x00,
   0x00, 0xf0, 0xff, 0x3f, 0x00, 0xf8, 0xff, 0x0f, 0xc0, 0xff, 0xff, 0x00,
   0x7f, 0x00, 0x00, 0xf8, 0xff, 0x0f, 0xf0, 0x07, 0xe0, 0xff, 0x7f, 0x80,
   0x3f, 0xe0, 0x0f, 0x00, 0x00, 0xc0, 0xff, 0x00, 0x80, 0xff, 0x0b, 0x00,
   0x00, 0x00, 0x00, 0x00, 0x00, 0x00, 0xfc, 0x03, 0x00, 0x80, 0x7f, 0x00,
   0x00, 0x00, 0x80, 0xff, 0x03, 0x00, 0xe0, 0x7f, 0x01, 0x00, 0xff, 0x17,
   0x00, 0x00, 0x00, 0x00, 0xe0, 0x7f, 0x00, 0x00, 0x00, 0x80, 0xff, 0x0b,
   0x00, 0x00, 0x00, 0x00, 0x00, 0x00, 0x00, 0x00, 0x00, 0x00, 0x00, 0x00,
   0x00, 0x00, 0x00, 0x00, 0x00, 0x00, 0x00, 0x00, 0x00, 0x00, 0x00, 0x00,
   0x00, 0x00, 0x00, 0x00, 0x00, 0x00, 0x00, 0x00, 0x00, 0x00, 0x00, 0x00,
   0x00, 0x00, 0x00, 0x00, 0x00, 0x00, 0x00, 0x00, 0x00, 0x00, 0x00, 0x00,
   0x00, 0x00, 0x00, 0x00, 0x00, 0x00, 0x00, 0x00, 0x00, 0x00, 0x00, 0x00,
   0x00, 0x00, 0x00, 0x00, 0x00, 0x00, 0x00, 0x00, 0x00, 0x00, 0x00, 0x00,
   0x00, 0x00, 0x00, 0x00, 0x00, 0x00, 0x00, 0x00, 0x00, 0x00, 0x00, 0x00,
   0x00, 0x00, 0x00, 0x00, 0x00, 0x00, 0x00, 0x00, 0x00, 0x00, 0x00, 0x00,
   0x00, 0x00, 0x00, 0x00, 0x00, 0x00, 0x00, 0x00, 0x00, 0x00, 0x00, 0x00,
   0x00, 0x00, 0x00, 0x00, 0x00, 0x00, 0x00, 0x00, 0x00, 0x00, 0x00, 0x00,
   0x00, 0x00, 0x00, 0x00, 0x00, 0x00, 0x00, 0x00, 0x00, 0x00, 0x00, 0x00,
   0x00, 0x00, 0x00, 0x00, 0x00, 0x00, 0x00, 0x00, 0x00, 0x00, 0x00, 0x00,
   0x00, 0x00, 0x00, 0x00, 0x00, 0x00, 0x00, 0x00, 0x00, 0x00, 0x00, 0x00,
   0x00, 0x00, 0x00, 0x00, 0x00, 0x00, 0x00, 0x00, 0x00, 0x00, 0x00, 0x00,
   0x00, 0x00, 0x00, 0x00, 0x00, 0x00, 0x00, 0x00, 0x00, 0x00, 0x00, 0x00,
   0x00, 0x00, 0x00, 0x00, 0x00, 0x00, 0x00, 0x00, 0x00, 0x00, 0x00, 0x00,
   0x00, 0x00, 0x00, 0x00, 0x00, 0x00, 0x00, 0x00, 0x00, 0x00, 0x00, 0x00,
   0x00, 0x00, 0x00, 0x00, 0x00, 0x00, 0x00, 0x00, 0x00, 0x00, 0x00, 0x00,
   0x00, 0x00, 0x00, 0x00, 0x00, 0x00, 0x00, 0x00, 0x00, 0x00, 0x00, 0x00,
   0x00, 0x00, 0x00, 0x00, 0x00, 0x00, 0x00, 0x00, 0x00, 0x00, 0x00, 0x00,
   0x00, 0x00, 0x00, 0x00, 0x00, 0x00, 0x00, 0x00, 0x00, 0x00, 0x00, 0x00,
   0x00, 0x00, 0x00, 0x00, 0x00, 0x00, 0x00, 0x00, 0x00, 0x00, 0x00, 0x00,
   0x00, 0x00, 0x00, 0x00, 0x00, 0x00, 0x00, 0x00, 0x00, 0x00, 0x00, 0x00,
   0x00, 0x00, 0x00, 0x00, 0x00, 0x00, 0x00, 0x00, 0x00, 0x00, 0x00, 0x00,
   0x00, 0x00, 0x00, 0x00, 0x00, 0x00, 0x00, 0x00, 0x00, 0x00, 0x00, 0x00,
   0x00, 0x00, 0x00, 0x00, 0x00, 0x00, 0x00, 0x00, 0x00, 0x00, 0x00, 0x00,
   0x00, 0x00, 0x00, 0x00, 0x00, 0x00, 0x00, 0x00, 0x00, 0x00, 0x00, 0x00,
   0x00, 0x00, 0x00, 0x00, 0x00, 0x00, 0x00, 0x00, 0x00, 0x00, 0x00, 0x00,
   0x00, 0x00, 0x00, 0x00, 0x00, 0x00, 0x00, 0x00, 0x00, 0x00, 0x00, 0x00,
   0x00, 0x00, 0x00, 0x00, 0x00, 0x00, 0x00, 0x00, 0x00, 0x00, 0x00, 0x00,
   0x00, 0x00, 0x00, 0x00, 0x00, 0x00, 0x00, 0x00, 0x00, 0x00, 0x00, 0x00,
   0x00, 0x00, 0x00, 0x00, 0x00, 0x00, 0x00, 0x00, 0x00, 0x00, 0x00, 0x00,
   0x00, 0x00, 0x00, 0x00, 0x00, 0x00, 0x00, 0x00, 0x00, 0x00, 0x00, 0x00,
   0x00, 0x00, 0x00, 0x00, 0x00, 0x00, 0x00, 0x00, 0x00, 0x00, 0x00, 0x00,
   0x00, 0x00, 0x00, 0x00, 0x00, 0x00, 0x00, 0x00, 0x00, 0x00, 0x00, 0x00,
   0x00, 0x00, 0x00, 0x00, 0x00, 0x00, 0x00, 0x00, 0x00, 0x00, 0x00, 0x00,
   0x00, 0x00, 0x00, 0x00, 0x00, 0x00, 0x00, 0x00, 0x00, 0x00, 0x00, 0x00,
   0x00, 0x00 };
